<?xml version="1.0" encoding="utf-8"?>
<!-- Generator: Adobe Illustrator 27.2.0, SVG Export Plug-In . SVG Version: 6.00 Build 0)  -->
<svg version="1.1" xmlns="http://www.w3.org/2000/svg" xmlns:xlink="http://www.w3.org/1999/xlink" x="0px" y="0px"
	 viewBox="0 0 6912 3456" style="enable-background:new 0 0 6912 3456;" xml:space="preserve">
<style type="text/css">
	.st0{fill:#FFFFFF;}
	.st1{fill:#FFFFFF;stroke:#000000;stroke-miterlimit:10;}
	.st2{fill:#FFFFFF;stroke:#231F20;stroke-miterlimit:10;}
	.st3{fill:none;stroke:#231F20;stroke-width:4;stroke-miterlimit:2;}
	.st4{fill:#00A551;stroke:#231F20;stroke-miterlimit:10;}
	.st5{fill:#00A551;stroke:#231F20;stroke-width:0.5;stroke-miterlimit:10;}
	.st6{fill:#E61E25;stroke:#231F20;stroke-miterlimit:10;}
	.st7{fill:#2E3191;stroke:#231F20;stroke-miterlimit:10;}
	.st8{fill:#2E3191;stroke:#231F20;stroke-width:0.5;stroke-miterlimit:10;}
	.st9{fill:#303091;stroke:#231F20;stroke-width:0.5;stroke-miterlimit:10;}
</style>
<g id="Art">
	<g>
		<g>
			<defs>
				<rect id="SVGID_1_" x="-604.8" y="86.2" width="6650.4" height="3283.7"/>
			</defs>
			<clipPath id="SVGID_00000124849144747204226510000015306358412158369164_">
				<use xlink:href="#SVGID_1_"  style="overflow:visible;"/>
			</clipPath>
			<g transform="matrix(1 0 0 1 0 0)" style="clip-path:url(#SVGID_00000124849144747204226510000015306358412158369164_);">
				
					<image style="overflow:visible;" width="1920" height="948" xlink:href="BA5307D5.png"  transform="matrix(3.4638 0 0 3.4638 -604.8345 86.1738)">
				</image>
			</g>
		</g>
	</g>
	<polygon class="st0" points="381.7,2485.8 -310.5,2510.8 -612,3306.6 103.7,3308.8 	"/>
</g>
<g id="Holes">
	<circle class="st1" cx="5909.8" cy="824" r="17.3"/>
	<circle class="st1" cx="5984.3" cy="743.2" r="17.3"/>
	<circle class="st1" cx="5835.3" cy="743.2" r="17.3"/>
	<circle class="st1" cx="5909.8" cy="136.6" r="17.3"/>
	<circle class="st1" cx="5984.3" cy="217.4" r="17.3"/>
	<circle class="st1" cx="5835.3" cy="217.4" r="17.3"/>
	<g>
		<circle class="st1" cx="5749.4" cy="211.5" r="17.3"/>
		<circle class="st1" cx="5639.8" cy="211.6" r="17.3"/>
		<circle class="st1" cx="5530.2" cy="211.7" r="17.3"/>
		<circle class="st1" cx="5420.7" cy="211.8" r="17.3"/>
		<circle class="st1" cx="5311.1" cy="211.9" r="17.3"/>
		<circle class="st1" cx="5201.5" cy="212" r="17.3"/>
		<circle class="st1" cx="5092" cy="212.1" r="17.3"/>
		<circle class="st1" cx="4982.4" cy="212.2" r="17.3"/>
		<circle class="st1" cx="4872.9" cy="212.3" r="17.3"/>
		<circle class="st1" cx="4763.3" cy="212.4" r="17.3"/>
		<circle class="st1" cx="4653.7" cy="212.5" r="17.3"/>
		<circle class="st1" cx="5749.4" cy="764.3" r="17.3"/>
		<circle class="st1" cx="5640.3" cy="774.5" r="17.3"/>
		<circle class="st1" cx="5531.2" cy="784.8" r="17.3"/>
		<circle class="st1" cx="5422.1" cy="795.1" r="17.3"/>
		<circle class="st1" cx="5313" cy="805.3" r="17.3"/>
		<circle class="st1" cx="5204" cy="815.6" r="17.3"/>
		<circle class="st1" cx="5094.9" cy="825.8" r="17.3"/>
		<circle class="st1" cx="4985.8" cy="836.1" r="17.3"/>
		<circle class="st1" cx="4876.7" cy="846.4" r="17.3"/>
		<circle class="st1" cx="4767.6" cy="856.6" r="17.3"/>
		<circle class="st1" cx="4658.5" cy="866.9" r="17.3"/>
		<circle class="st1" cx="4560.4" cy="212.5" r="17.3"/>
		<circle class="st1" cx="4422.4" cy="212.5" r="17.3"/>
		<circle class="st1" cx="4560.4" cy="302.5" r="17.3"/>
		<circle class="st1" cx="4422.4" cy="302.5" r="17.3"/>
		<circle class="st1" cx="4560.4" cy="392.5" r="17.3"/>
		<circle class="st1" cx="4422.4" cy="392.5" r="17.3"/>
		<circle class="st1" cx="4560.4" cy="482.5" r="17.3"/>
		<circle class="st1" cx="4422.4" cy="482.5" r="17.3"/>
		<circle class="st1" cx="4560.4" cy="572.5" r="17.3"/>
		<circle class="st1" cx="4422.4" cy="572.5" r="17.3"/>
		<circle class="st1" cx="4560.4" cy="662.5" r="17.3"/>
		<circle class="st1" cx="4560.4" cy="752.5" r="17.3"/>
		<circle class="st1" cx="4422.4" cy="662.5" r="17.3"/>
		<circle class="st1" cx="4534.3" cy="130.6" r="17.3"/>
		<circle class="st1" cx="4459.8" cy="130.6" r="17.3"/>
		<circle class="st1" cx="2889.3" cy="233.5" r="17.3"/>
		<circle class="st1" cx="3027.3" cy="233.5" r="17.3"/>
		<circle class="st1" cx="2889.3" cy="348.3" r="17.3"/>
		<circle class="st1" cx="3027.3" cy="329.7" r="17.3"/>
		<circle class="st1" cx="2889.3" cy="463.2" r="17.3"/>
		<circle class="st1" cx="3027.3" cy="425.9" r="17.3"/>
		<circle class="st1" cx="2889.3" cy="578" r="17.3"/>
		<circle class="st1" cx="3027.3" cy="522.2" r="17.3"/>
		<circle class="st1" cx="2952.6" cy="170.3" r="17.3"/>
	</g>
	<circle class="st1" cx="5984.3" cy="638" r="17.3"/>
	<circle class="st1" cx="5835.3" cy="638" r="17.3"/>
	<circle class="st1" cx="5984.3" cy="532.9" r="17.3"/>
	<circle class="st1" cx="5835.3" cy="532.9" r="17.3"/>
	<circle class="st1" cx="5984.3" cy="427.7" r="17.3"/>
	<circle class="st1" cx="5835.3" cy="427.7" r="17.3"/>
	<circle class="st1" cx="5984.3" cy="322.5" r="17.3"/>
	<circle class="st1" cx="6089.5" cy="217.4" r="17.3"/>
	<circle class="st1" cx="6194.8" cy="204.5" r="17.3"/>
	<circle class="st1" cx="6300.1" cy="191.7" r="17.3"/>
	<circle class="st1" cx="6405.5" cy="178.8" r="17.3"/>
	<circle class="st1" cx="6510.8" cy="166" r="17.3"/>
	<circle class="st1" cx="6616.1" cy="153.1" r="17.3"/>
	<circle class="st1" cx="6721.4" cy="140.2" r="17.3"/>
	<circle class="st1" cx="6721.4" cy="279.7" r="17.3"/>
	<circle class="st1" cx="6616.1" cy="286.8" r="17.3"/>
	<circle class="st1" cx="6510.8" cy="294" r="17.3"/>
	<circle class="st1" cx="6405.5" cy="301.1" r="17.3"/>
	<circle class="st1" cx="6300.1" cy="308.3" r="17.3"/>
	<circle class="st1" cx="6194.8" cy="315.4" r="17.3"/>
	<circle class="st1" cx="6089.5" cy="322.5" r="17.3"/>
	<circle class="st1" cx="6721.4" cy="410.6" r="17.3"/>
	<circle class="st1" cx="6616.1" cy="413.4" r="17.3"/>
	<circle class="st1" cx="6510.8" cy="416.3" r="17.3"/>
	<circle class="st1" cx="6405.5" cy="419.1" r="17.3"/>
	<circle class="st1" cx="6300.1" cy="422" r="17.3"/>
	<circle class="st1" cx="6194.8" cy="424.9" r="17.3"/>
	<circle class="st1" cx="6089.5" cy="427.7" r="17.3"/>
	<circle class="st1" cx="6089.5" cy="743.2" r="17.3"/>
	<circle class="st1" cx="6194.8" cy="756.1" r="17.3"/>
	<circle class="st1" cx="6300.1" cy="768.9" r="17.3"/>
	<circle class="st1" cx="6405.5" cy="781.8" r="17.3"/>
	<circle class="st1" cx="6510.8" cy="794.6" r="17.3"/>
	<circle class="st1" cx="6616.1" cy="807.5" r="17.3"/>
	<circle class="st1" cx="6721.4" cy="820.4" r="17.3"/>
	<circle class="st1" cx="6721.4" cy="680.9" r="17.3"/>
	<circle class="st1" cx="6616.1" cy="673.8" r="17.3"/>
	<circle class="st1" cx="6510.8" cy="666.6" r="17.3"/>
	<circle class="st1" cx="6405.5" cy="659.5" r="17.3"/>
	<circle class="st1" cx="6300.1" cy="652.3" r="17.3"/>
	<circle class="st1" cx="6194.8" cy="645.2" r="17.3"/>
	<circle class="st1" cx="6089.5" cy="638" r="17.3"/>
	<circle class="st1" cx="6721.4" cy="550" r="17.3"/>
	<circle class="st1" cx="6616.1" cy="547.2" r="17.3"/>
	<circle class="st1" cx="6510.8" cy="544.3" r="17.3"/>
	<circle class="st1" cx="6405.5" cy="541.4" r="17.3"/>
	<circle class="st1" cx="6300.1" cy="538.6" r="17.3"/>
	<circle class="st1" cx="6194.8" cy="535.7" r="17.3"/>
	<circle class="st1" cx="6089.5" cy="532.9" r="17.3"/>
	<circle class="st1" cx="5835.3" cy="322.5" r="17.3"/>
	<circle class="st1" cx="1803.2" cy="817" r="17.3"/>
	<circle class="st1" cx="1642.8" cy="724.2" r="17.3"/>
	<circle class="st1" cx="1723" cy="190.5" r="17.3"/>
	<circle class="st1" cx="1803.2" cy="259.9" r="17.3"/>
	<circle class="st1" cx="1642.8" cy="259.9" r="17.3"/>
	<circle class="st1" cx="1803.2" cy="631.3" r="17.3"/>
	<circle class="st1" cx="1642.8" cy="631.3" r="17.3"/>
	<circle class="st1" cx="1379.7" cy="677.7" r="17.3"/>
	<circle class="st1" cx="1397.1" cy="580.3" r="17.3"/>
	<circle class="st1" cx="1204.8" cy="612.8" r="17.3"/>
	<circle class="st1" cx="1214.3" cy="793.2" r="17.3"/>
	<circle class="st1" cx="1394.1" cy="775.6" r="17.3"/>
	<circle class="st1" cx="1477" cy="954.5" r="17.3"/>
	<circle class="st1" cx="1493.9" cy="408.7" r="17.3"/>
	<circle class="st1" cx="1379.7" cy="677.7" r="17.3"/>
	<circle class="st1" cx="1428.2" cy="868.4" r="17.3"/>
	<circle class="st1" cx="1546.1" cy="1025.3" r="17.3"/>
	<circle class="st1" cx="1438.1" cy="490.4" r="17.3"/>
	<circle class="st1" cx="1300.7" cy="558.1" r="17.3"/>
	<circle class="st1" cx="1165.7" cy="708" r="17.3"/>
	<circle class="st1" cx="1300.7" cy="826.5" r="17.3"/>
	<circle class="st1" cx="1560.6" cy="335.7" r="17.3"/>
	<circle class="st1" cx="1803.2" cy="724.2" r="17.3"/>
	<circle class="st1" cx="1642.8" cy="817" r="17.3"/>
	<circle class="st1" cx="1803.2" cy="909.9" r="17.3"/>
	<circle class="st1" cx="1642.8" cy="909.9" r="17.3"/>
	<circle class="st1" cx="1723" cy="1159.3" r="17.3"/>
	<circle class="st1" cx="1803.2" cy="1002.7" r="17.3"/>
	<circle class="st1" cx="1642.8" cy="1002.7" r="17.3"/>
	<circle class="st1" cx="1803.2" cy="1095.6" r="17.3"/>
	<circle class="st1" cx="1642.8" cy="1095.6" r="17.3"/>
	<circle class="st1" cx="1803.2" cy="538.5" r="17.3"/>
	<circle class="st1" cx="1642.8" cy="538.5" r="17.3"/>
	<circle class="st1" cx="1803.2" cy="445.6" r="17.3"/>
	<circle class="st1" cx="1642.8" cy="445.6" r="17.3"/>
	<circle class="st1" cx="1803.2" cy="352.8" r="17.3"/>
	<circle class="st1" cx="1642.8" cy="352.8" r="17.3"/>
	<circle class="st1" cx="1186" cy="521.9" r="17.3"/>
	<circle class="st1" cx="1092" cy="67.2" r="17.3"/>
	<circle class="st1" cx="1167.2" cy="431" r="17.3"/>
	<circle class="st1" cx="1148.4" cy="340" r="17.3"/>
	<circle class="st1" cx="1129.6" cy="249.1" r="17.3"/>
	<circle class="st1" cx="1110.8" cy="158.2" r="17.3"/>
	<circle class="st1" cx="4332" cy="222.1" r="17.3"/>
	<circle class="st1" cx="4222.5" cy="223" r="17.3"/>
	<circle class="st1" cx="4112.9" cy="224" r="17.3"/>
	<circle class="st1" cx="4003.4" cy="225" r="17.3"/>
	<circle class="st1" cx="3893.8" cy="225.9" r="17.3"/>
	<circle class="st1" cx="3784.2" cy="226.9" r="17.3"/>
	<circle class="st1" cx="3674.7" cy="227.8" r="17.3"/>
	<circle class="st1" cx="3565.1" cy="228.8" r="17.3"/>
	<circle class="st1" cx="3455.5" cy="229.7" r="17.3"/>
	<circle class="st1" cx="3346" cy="230.7" r="17.3"/>
	<circle class="st1" cx="3236.4" cy="231.6" r="17.3"/>
	
		<ellipse transform="matrix(0.704 -0.7102 0.7102 0.704 760.3409 2289.5063)" class="st1" cx="3126.8" cy="232.6" rx="17.3" ry="17.3"/>
	<circle class="st1" cx="2795.8" cy="233.5" r="17.3"/>
	<circle class="st1" cx="2686.2" cy="234.4" r="17.3"/>
	<circle class="st1" cx="2576.7" cy="235.4" r="17.3"/>
	<circle class="st1" cx="2467.1" cy="236.3" r="17.3"/>
	<circle class="st1" cx="2357.5" cy="237.3" r="17.3"/>
	<circle class="st1" cx="2248" cy="238.2" r="17.3"/>
	<circle class="st1" cx="2138.4" cy="239.2" r="17.3"/>
	<circle class="st1" cx="2028.8" cy="240.1" r="17.3"/>
	
		<ellipse transform="matrix(0.704 -0.7102 0.7102 0.704 396.8705 1434.4215)" class="st1" cx="1919.3" cy="241.1" rx="17.3" ry="17.3"/>
	
		<ellipse transform="matrix(0.996 -8.941212e-02 8.941212e-02 0.996 -90.2402 206.0624)" class="st1" cx="2254.9" cy="1110.3" rx="17.3" ry="17.3"/>
	
		<ellipse transform="matrix(0.996 -8.941212e-02 8.941212e-02 0.996 -91.6379 196.3559)" class="st1" cx="2145.9" cy="1121" rx="17.3" ry="17.3"/>
	
		<ellipse transform="matrix(0.996 -8.941213e-02 8.941213e-02 0.996 -93.0355 186.6494)" class="st1" cx="2036.8" cy="1131.8" rx="17.3" ry="17.3"/>
	
		<ellipse transform="matrix(0.6377 -0.7703 0.7703 0.6377 -181.6116 1898.9103)" class="st1" cx="1927.8" cy="1142.5" rx="17.3" ry="17.3"/>
	<path class="st2" d="M2160.4,1343.2c-0.6,0-1.2,0-1.8-0.1c-0.6-0.1-1.2-0.1-1.8-0.3c-0.6-0.1-1.2-0.3-1.7-0.4
		c-0.6-0.2-1.1-0.4-1.7-0.6c-0.5-0.2-1.1-0.5-1.6-0.8c-0.5-0.3-1-0.6-1.5-0.9c-0.5-0.3-1-0.7-1.4-1.1c-0.4-0.4-0.9-0.8-1.3-1.2
		c-0.4-0.4-0.8-0.9-1.2-1.3c-0.4-0.5-0.7-0.9-1-1.4c-0.3-0.5-0.6-1-0.9-1.5c-0.3-0.5-0.5-1-0.8-1.6c-0.2-0.5-0.4-1.1-0.6-1.7
		s-0.3-1.1-0.4-1.7c-0.1-0.6-0.2-1.2-0.3-1.8c-0.1-0.6-0.1-1.2-0.1-1.8c0-0.6,0-1.2,0.1-1.8c0.1-0.6,0.2-1.2,0.3-1.8
		c0.1-0.6,0.3-1.1,0.4-1.7s0.4-1.1,0.6-1.7c0.2-0.5,0.5-1.1,0.8-1.6c0.3-0.5,0.6-1,0.9-1.5c0.3-0.5,0.7-1,1-1.4
		c0.4-0.5,0.8-0.9,1.2-1.3c0.4-0.4,0.9-0.8,1.3-1.2c0.5-0.4,0.9-0.7,1.4-1c0.5-0.3,1-0.6,1.5-0.9c0.5-0.3,1-0.5,1.6-0.8
		c0.5-0.2,1.1-0.4,1.7-0.6c0.6-0.2,1.1-0.3,1.7-0.4c0.6-0.1,1.2-0.2,1.8-0.3c1.2-0.1,2.4-0.1,3.5,0c0.6,0.1,1.2,0.1,1.7,0.3
		c0.6,0.1,1.1,0.3,1.7,0.4s1.1,0.4,1.7,0.6c0.5,0.2,1.1,0.5,1.6,0.8c0.5,0.3,1,0.6,1.5,0.9c0.5,0.3,1,0.7,1.4,1
		c0.5,0.4,0.9,0.8,1.3,1.2c0.4,0.4,0.8,0.9,1.2,1.3c0.4,0.4,0.7,0.9,1.1,1.4c0.3,0.5,0.6,1,0.9,1.5c0.3,0.5,0.5,1.1,0.8,1.6
		c0.2,0.5,0.4,1.1,0.6,1.7s0.3,1.1,0.4,1.7c0.1,0.6,0.2,1.2,0.3,1.8c0.1,0.6,0.1,1.2,0.1,1.8c0,0.6,0,1.2-0.1,1.8
		c-0.1,0.6-0.1,1.2-0.3,1.8c-0.1,0.6-0.3,1.1-0.4,1.7s-0.4,1.1-0.6,1.7c-0.2,0.5-0.5,1.1-0.8,1.6c-0.3,0.5-0.6,1-0.9,1.5
		c-0.3,0.5-0.7,1-1.1,1.4c-0.4,0.5-0.8,0.9-1.2,1.3c-0.4,0.4-0.9,0.8-1.3,1.2c-0.4,0.4-0.9,0.7-1.4,1.1c-0.5,0.3-1,0.6-1.5,0.9
		c-0.5,0.3-1,0.5-1.6,0.8c-0.5,0.2-1.1,0.4-1.7,0.6s-1.1,0.3-1.7,0.4c-0.6,0.1-1.2,0.2-1.7,0.3
		C2161.6,1343.1,2161,1343.2,2160.4,1343.2z"/>
	<path class="st2" d="M400.8,2558.9c-0.3-9.9,7.5-18.2,17.4-18.5l0,0c9.9-0.3,18.2,7.5,18.5,17.5l0,0c0.3,9.9-7.5,18.2-17.5,18.5
		l0,0c-0.2,0-0.4,0-0.5,0l0,0C409.1,2576.3,401.1,2568.6,400.8,2558.9z"/>
	<path class="st2" d="M515.3,2555.4c-0.3-9.9,7.5-18.2,17.4-18.5l0,0c9.9-0.3,18.2,7.5,18.5,17.5l0,0c0.3,9.9-7.5,18.2-17.5,18.5
		l0,0c-0.2,0-0.4,0-0.5,0l0,0C523.6,2572.9,515.6,2565.2,515.3,2555.4z"/>
	<path class="st2" d="M633.2,2561.2c-6.3-7.7-5.1-19.1,2.7-25.3l0,0c7.7-6.2,19.1-5.1,25.3,2.7l0,0c6.3,7.7,5.1,19.1-2.7,25.3l0,0
		c-3.3,2.7-7.3,4-11.3,4l0,0C641.9,2567.8,636.7,2565.5,633.2,2561.2z"/>
	<path class="st2" d="M722.2,2489.1c-6.2-7.7-5.1-19.1,2.7-25.3l0,0c7.7-6.2,19.1-5.1,25.3,2.7l0,0c6.2,7.7,5.1,19.1-2.7,25.3l0,0
		c-3.3,2.7-7.3,4-11.3,4l0,0C730.9,2495.8,725.7,2493.5,722.2,2489.1z"/>
	<path class="st2" d="M811.2,2417.1c-6.3-7.7-5.1-19.1,2.7-25.3l0,0c7.7-6.2,19.1-5.1,25.3,2.7l0,0c6.2,7.7,5.1,19.1-2.7,25.3l0,0
		c-3.3,2.7-7.3,4-11.3,4l0,0C819.9,2423.8,814.7,2421.5,811.2,2417.1z"/>
	<path class="st2" d="M900.2,2345c-6.2-7.7-5.1-19.1,2.7-25.3l0,0c7.7-6.3,19.1-5.1,25.3,2.7l0,0c6.2,7.7,5,19.1-2.7,25.3l0,0
		c-3.3,2.7-7.3,4-11.3,4l0,0C909,2351.7,903.8,2349.4,900.2,2345z"/>
	<path class="st2" d="M989.2,2273c-6.3-7.7-5.1-19.1,2.7-25.3l0,0c7.7-6.3,19.1-5.1,25.3,2.7l0,0c6.2,7.7,5.1,19.1-2.7,25.3l0,0
		c-3.3,2.7-7.3,4-11.3,4l0,0C998,2279.7,992.8,2277.4,989.2,2273z"/>
	<path class="st2" d="M1078.2,2201c-6.2-7.7-5.1-19.1,2.7-25.3l0,0c7.7-6.2,19.1-5.1,25.3,2.7l0,0c6.3,7.7,5.1,19.1-2.7,25.3l0,0
		c-3.3,2.7-7.3,4-11.3,4l0,0C1087,2207.6,1081.8,2205.4,1078.2,2201z"/>
	<path class="st2" d="M1167.3,2128.9c-6.3-7.7-5.1-19.1,2.7-25.3l0,0c7.7-6.2,19.1-5.1,25.3,2.7l0,0c6.2,7.7,5.1,19.1-2.7,25.3l0,0
		c-3.3,2.7-7.3,4-11.3,4l0,0C1176,2135.6,1170.8,2133.3,1167.3,2128.9z"/>
	<path class="st2" d="M1256.3,2056.9c-6.3-7.7-5.1-19.1,2.7-25.3l0,0c7.7-6.2,19.1-5.1,25.3,2.7l0,0c6.3,7.7,5.1,19.1-2.7,25.3l0,0
		c-3.3,2.7-7.3,4-11.3,4l0,0C1265,2063.6,1259.8,2061.3,1256.3,2056.9z"/>
	<path class="st2" d="M1345.3,1984.8c-6.2-7.7-5.1-19.1,2.7-25.3l0,0c7.7-6.2,19.1-5.1,25.3,2.7l0,0c6.2,7.7,5.1,19.1-2.7,25.3l0,0
		c-3.3,2.7-7.3,4-11.3,4l0,0C1354,1991.5,1348.8,1989.2,1345.3,1984.8z"/>
	<path class="st2" d="M1434.3,1912.8c-6.3-7.7-5.1-19.1,2.7-25.3l0,0c7.7-6.3,19.1-5.1,25.3,2.7l0,0c6.2,7.7,5.1,19.1-2.7,25.3l0,0
		c-3.3,2.7-7.3,4-11.3,4l0,0C1443.1,1919.5,1437.8,1917.2,1434.3,1912.8z"/>
	<path class="st2" d="M1523.3,1840.8c-6.2-7.7-5.1-19.1,2.7-25.3l0,0c7.7-6.3,19.1-5.1,25.3,2.7l0,0c6.2,7.7,5.1,19.1-2.7,25.3l0,0
		c-3.3,2.7-7.3,4-11.3,4l0,0C1532.1,1847.5,1526.9,1845.2,1523.3,1840.8z"/>
	<path class="st2" d="M1612.3,1768.7c-6.3-7.7-5.1-19.1,2.7-25.3l0,0c7.7-6.3,19.1-5.1,25.3,2.7l0,0c6.2,7.7,5.1,19.1-2.7,25.3l0,0
		c-3.3,2.7-7.3,4-11.3,4l0,0C1621.1,1775.4,1615.9,1773.1,1612.3,1768.7z"/>
	<path class="st2" d="M1701.3,1696.7c-6.2-7.7-5.1-19.1,2.7-25.3l0,0c7.7-6.2,19.1-5.1,25.3,2.7l0,0c6.3,7.7,5.1,19.1-2.7,25.3l0,0
		c-3.3,2.7-7.3,4-11.3,4l0,0C1710.1,1703.4,1704.9,1701.1,1701.3,1696.7z"/>
	<path class="st2" d="M1790.4,1624.7c-6.3-7.7-5.1-19.1,2.7-25.3l0,0c7.7-6.2,19.1-5.1,25.3,2.7l0,0c6.2,7.7,5.1,19.1-2.7,25.3l0,0
		c-3.3,2.7-7.3,4-11.3,4l0,0C1799.1,1631.3,1793.9,1629,1790.4,1624.7z"/>
	<path class="st2" d="M1879.4,1552.6c-6.2-7.7-5.1-19.1,2.7-25.3l0,0c7.7-6.3,19.1-5.1,25.3,2.7l0,0c6.3,7.7,5.1,19.1-2.7,25.3l0,0
		c-3.3,2.7-7.3,4-11.3,4l0,0C1888.1,1559.3,1882.9,1557,1879.4,1552.6z"/>
	<path class="st2" d="M1968.4,1480.6c-6.2-7.7-5-19.1,2.7-25.3l0,0c7.7-6.3,19.1-5.1,25.3,2.7l0,0c6.2,7.7,5.1,19.1-2.7,25.3l0,0
		c-3.3,2.7-7.3,4-11.3,4l0,0C1977.1,1487.3,1971.9,1485,1968.4,1480.6z"/>
	<path class="st2" d="M2057.4,1408.5c-6.3-7.7-5.1-19.1,2.7-25.3l0,0c7.7-6.3,19.1-5.1,25.3,2.7l0,0c6.3,7.7,5.1,19.1-2.7,25.3l0,0
		c-3.3,2.7-7.3,4-11.3,4l0,0C2066.2,1415.2,2060.9,1412.9,2057.4,1408.5z"/>
	<path class="st2" d="M213.3,3144.5c-9.3-3.6-13.9-14-10.3-23.3l0,0c3.6-9.3,14-13.9,23.3-10.3l0,0c9.3,3.6,13.9,14,10.3,23.3l0,0
		c-2.8,7.1-9.6,11.5-16.8,11.5l0,0C217.6,3145.7,215.5,3145.4,213.3,3144.5z"/>
	<path class="st2" d="M253.1,3030.7c-9.3-3.6-13.9-14-10.3-23.3l0,0c3.6-9.3,14-13.9,23.3-10.3l0,0c9.3,3.6,13.9,14,10.3,23.3l0,0
		c-2.8,7.1-9.6,11.5-16.8,11.5l0,0C257.5,3031.9,255.3,3031.5,253.1,3030.7z"/>
	<path class="st2" d="M292.9,2916.8c-9.3-3.6-13.9-14-10.3-23.3l0,0c3.6-9.3,14-13.9,23.3-10.3l0,0c9.3,3.6,13.9,14,10.3,23.3l0,0
		c-2.8,7.2-9.6,11.5-16.8,11.5l0,0C297.3,2918,295.1,2917.6,292.9,2916.8z"/>
	<path class="st2" d="M332.7,2802.9c-9.3-3.6-13.9-14-10.3-23.3l0,0c3.6-9.3,14-13.9,23.3-10.3l0,0c9.3,3.6,13.9,14,10.3,23.3l0,0
		c-2.8,7.1-9.6,11.5-16.8,11.5l0,0C337.1,2804.1,334.9,2803.7,332.7,2802.9z"/>
	<path class="st2" d="M372.5,2689c-9.3-3.6-13.9-14-10.3-23.3l0,0c3.6-9.3,14-13.9,23.3-10.3l0,0c9.3,3.6,13.9,14,10.3,23.3l0,0
		c-2.8,7.1-9.6,11.5-16.8,11.5l0,0C376.9,2690.2,374.7,2689.8,372.5,2689z"/>
	<path class="st2" d="M765.9,3260.8c-9.9,0-18-8.1-18-18l0,0c0-9.9,8.1-18,18-18l0,0c9.9,0,18,8.1,18,18l0,0
		C783.9,3252.8,775.8,3260.8,765.9,3260.8L765.9,3260.8C765.9,3260.8,765.9,3260.8,765.9,3260.8z"/>
	<path class="st2" d="M648.7,3260.6c-9.9,0-18-8.1-18-18l0,0c0-9.9,8.1-18,18-18l0,0c9.9,0,18,8.1,18,18l0,0
		C666.7,3252.6,658.7,3260.6,648.7,3260.6L648.7,3260.6C648.7,3260.6,648.7,3260.6,648.7,3260.6z"/>
	<path class="st2" d="M531.5,3260.4c-9.9,0-18-8.1-18-18l0,0c0-9.9,8.1-18,18-18l0,0c9.9,0,18,8.1,18,18l0,0
		C549.5,3252.3,541.5,3260.4,531.5,3260.4L531.5,3260.4C531.5,3260.4,531.5,3260.4,531.5,3260.4z"/>
	<path class="st2" d="M414.3,3260.1c-9.9,0-18-8.1-18-18l0,0c0-9.9,8.1-18,18-18l0,0c9.9,0,18,8.1,18,18l0,0
		C432.4,3252.1,424.3,3260.1,414.3,3260.1L414.3,3260.1C414.4,3260.1,414.3,3260.1,414.3,3260.1z"/>
	<path class="st2" d="M297.2,3259.9c-9.9,0-18-8.1-18-18l0,0c0-9.9,8.1-18,18-18l0,0c9.9,0,18,8.1,18,18l0,0
		C315.2,3251.8,307.1,3259.9,297.2,3259.9L297.2,3259.9C297.2,3259.9,297.2,3259.9,297.2,3259.9z"/>
	<path class="st2" d="M180,3259.6c-10,0-18-8.1-18-18l0,0c0-9.9,8.1-18,18-18l0,0c9.9,0,18,8.1,18,18l0,0
		C198,3251.6,189.9,3259.6,180,3259.6L180,3259.6C180,3259.6,180,3259.6,180,3259.6z"/>
	<path class="st2" d="M856.9,3219.2c-6.1-7.9-4.7-19.2,3.2-25.3l0,0c7.9-6.1,19.1-4.7,25.3,3.2l0,0c6.1,7.9,4.7,19.2-3.2,25.3l0,0
		c-3.3,2.5-7.2,3.8-11,3.8l0,0C865.8,3226.2,860.5,3223.8,856.9,3219.2z"/>
	<path class="st2" d="M949.4,3147.3c-6.1-7.8-4.7-19.1,3.2-25.2l0,0c7.9-6.1,19.2-4.7,25.3,3.2l0,0c6.1,7.8,4.7,19.2-3.2,25.3l0,0
		c-3.3,2.6-7.2,3.8-11,3.8l0,0C958.3,3154.2,953,3151.8,949.4,3147.3z"/>
	<path class="st2" d="M1042,3075.3c-6.1-7.8-4.7-19.2,3.2-25.3l0,0c7.8-6.1,19.1-4.7,25.3,3.2l0,0c6.1,7.8,4.7,19.1-3.2,25.3l0,0
		c-3.3,2.5-7.2,3.8-11,3.8l0,0C1050.8,3082.3,1045.5,3079.9,1042,3075.3z"/>
	<path class="st2" d="M1134.5,3003.4c-6.1-7.8-4.7-19.2,3.2-25.3l0,0c7.9-6.1,19.1-4.7,25.3,3.2l0,0c6.1,7.8,4.7,19.2-3.2,25.3l0,0
		c-3.3,2.6-7.2,3.8-11,3.8l0,0C1143.3,3010.3,1138,3008,1134.5,3003.4z"/>
	<path class="st2" d="M1227,2931.5c-6.1-7.8-4.7-19.2,3.2-25.3l0,0c7.9-6.1,19.2-4.7,25.3,3.1l0,0c6.1,7.9,4.7,19.2-3.2,25.3l0,0
		c-3.3,2.6-7.2,3.8-11,3.8l0,0C1235.8,2938.4,1230.5,2936,1227,2931.5z"/>
	<path class="st2" d="M1319.5,2859.5c-6.1-7.9-4.7-19.2,3.1-25.3l0,0c7.9-6.1,19.2-4.7,25.3,3.2l0,0c6.1,7.9,4.7,19.2-3.2,25.3l0,0
		c-3.3,2.6-7.2,3.8-11,3.8l0,0C1328.3,2866.5,1323,2864.1,1319.5,2859.5z"/>
	<path class="st2" d="M1412,2787.6c-6.1-7.8-4.7-19.2,3.2-25.3l0,0c7.8-6.1,19.1-4.7,25.3,3.2l0,0c6.1,7.8,4.7,19.2-3.2,25.3l0,0
		c-3.3,2.6-7.2,3.8-11,3.8l0,0C1420.8,2794.5,1415.5,2792.2,1412,2787.6z"/>
	<path class="st2" d="M1504.5,2715.7c-6.1-7.9-4.7-19.2,3.2-25.3l0,0c7.9-6.1,19.2-4.7,25.3,3.2l0,0c6.1,7.9,4.7,19.2-3.2,25.3l0,0
		c-3.3,2.6-7.2,3.8-11,3.8l0,0C1513.3,2722.6,1508,2720.2,1504.5,2715.7z"/>
	<path class="st2" d="M1597,2643.7c-6.1-7.8-4.7-19.2,3.2-25.3l0,0c7.9-6.1,19.2-4.7,25.3,3.2l0,0c6.1,7.8,4.7,19.2-3.2,25.3l0,0
		c-3.3,2.6-7.2,3.8-11,3.8l0,0C1605.8,2650.7,1600.5,2648.3,1597,2643.7z"/>
	<path class="st2" d="M1689.5,2571.8c-6.1-7.8-4.7-19.2,3.2-25.3l0,0c7.8-6.1,19.1-4.7,25.2,3.2l0,0c6.1,7.8,4.7,19.2-3.2,25.2l0,0
		c-3.3,2.6-7.2,3.8-11,3.8l0,0C1698.3,2578.7,1693,2576.3,1689.5,2571.8z"/>
	<path class="st2" d="M1782,2499.8c-6.1-7.8-4.7-19.2,3.2-25.3l0,0c7.8-6.1,19.1-4.7,25.3,3.2l0,0c6.1,7.8,4.7,19.1-3.2,25.3l0,0
		c-3.3,2.5-7.2,3.8-11,3.8l0,0C1790.8,2506.8,1785.5,2504.4,1782,2499.8z"/>
	<path class="st2" d="M1874.5,2427.9c-6.1-7.8-4.7-19.2,3.2-25.3l0,0c7.8-6.1,19.2-4.7,25.3,3.2l0,0c6.1,7.9,4.7,19.2-3.2,25.3l0,0
		c-3.3,2.6-7.2,3.8-11,3.8l0,0C1883.3,2434.9,1878,2432.5,1874.5,2427.9z"/>
	<path class="st2" d="M1967,2356c-6.1-7.8-4.7-19.2,3.2-25.3l0,0c7.8-6.1,19.2-4.7,25.3,3.2l0,0c6.1,7.8,4.7,19.2-3.2,25.3l0,0
		c-3.3,2.5-7.2,3.8-11,3.8l0,0C1975.8,2362.9,1970.5,2360.5,1967,2356z"/>
	<path class="st2" d="M2073.7,2291c-0.6,0-1.2,0-1.8-0.1c-0.6-0.1-1.2-0.1-1.8-0.3c-0.6-0.1-1.2-0.3-1.7-0.4
		c-0.6-0.2-1.1-0.4-1.7-0.6c-0.5-0.2-1.1-0.5-1.6-0.8c-0.5-0.3-1-0.6-1.5-0.9c-0.5-0.3-1-0.7-1.4-1c-0.4-0.4-0.9-0.8-1.3-1.2
		c-0.4-0.4-0.8-0.9-1.2-1.3c-0.4-0.4-0.7-0.9-1-1.4c-0.3-0.5-0.6-1-0.9-1.5c-0.3-0.5-0.5-1-0.8-1.6c-0.2-0.5-0.4-1.1-0.6-1.7
		c-0.2-0.6-0.3-1.1-0.4-1.7c-0.1-0.6-0.2-1.2-0.3-1.8c-0.1-0.6-0.1-1.2-0.1-1.8c0-0.6,0-1.2,0.1-1.8c0.1-0.6,0.1-1.2,0.3-1.8
		c0.1-0.6,0.3-1.1,0.4-1.7c0.2-0.6,0.4-1.1,0.6-1.7c0.2-0.5,0.5-1.1,0.8-1.6c0.3-0.5,0.6-1,0.9-1.5c0.3-0.5,0.7-1,1-1.4
		c0.4-0.5,0.8-0.9,1.2-1.3c0.4-0.4,0.9-0.8,1.3-1.2c0.5-0.4,0.9-0.7,1.4-1c0.5-0.3,1-0.6,1.5-0.9c0.5-0.3,1.1-0.5,1.6-0.8
		c0.5-0.2,1.1-0.4,1.7-0.6c0.6-0.2,1.1-0.3,1.7-0.4c0.6-0.1,1.2-0.2,1.8-0.3c1.2-0.1,2.4-0.1,3.5,0c0.6,0.1,1.2,0.1,1.7,0.3
		c0.6,0.1,1.1,0.3,1.7,0.4c0.6,0.2,1.1,0.4,1.7,0.6c0.5,0.2,1.1,0.5,1.6,0.8c0.5,0.3,1,0.6,1.5,0.9c0.5,0.3,1,0.7,1.4,1
		c0.5,0.4,0.9,0.8,1.3,1.2c0.4,0.4,0.8,0.9,1.2,1.3c0.4,0.5,0.7,0.9,1,1.4c0.3,0.5,0.6,1,0.9,1.5c0.3,0.5,0.5,1.1,0.8,1.6
		c0.2,0.5,0.4,1.1,0.6,1.7c0.2,0.6,0.3,1.1,0.4,1.7c0.1,0.6,0.2,1.2,0.3,1.8c0.1,0.6,0.1,1.2,0.1,1.8c0,0.6,0,1.2-0.1,1.8
		c-0.1,0.6-0.1,1.2-0.3,1.8c-0.1,0.6-0.3,1.2-0.4,1.7c-0.2,0.6-0.4,1.1-0.6,1.7c-0.2,0.5-0.5,1.1-0.8,1.6c-0.3,0.5-0.6,1-0.9,1.5
		c-0.3,0.5-0.7,1-1.1,1.4c-0.4,0.5-0.8,0.9-1.2,1.3c-0.4,0.4-0.9,0.8-1.3,1.2c-0.4,0.4-0.9,0.7-1.4,1c-0.5,0.3-1,0.6-1.5,0.9
		c-0.5,0.3-1,0.5-1.6,0.8c-0.5,0.2-1.1,0.4-1.7,0.6s-1.1,0.3-1.7,0.4c-0.6,0.1-1.2,0.2-1.7,0.3C2074.9,2291,2074.3,2291,2073.7,2291
		z"/>
	<path class="st2" d="M3601.6,3337.2c-9.9-0.1-17.9-8.3-17.8-18.2l0,0c0.1-10,8.3-17.9,18.2-17.8l0,0c9.9,0.1,17.9,8.3,17.8,18.2
		l0,0c-0.1,9.9-8.2,17.8-18,17.8l0,0C3601.7,3337.2,3601.6,3337.2,3601.6,3337.2z"/>
	<path class="st2" d="M3700.3,3316.5c-0.9-9.9,6.5-18.6,16.4-19.5l0,0c9.9-0.8,18.6,6.5,19.5,16.4l0,0c0.8,9.9-6.5,18.6-16.4,19.5
		l0,0c0,0,0,0,0,0l0,0c-0.5,0.1-1,0.1-1.6,0.1l0,0C3709,3333,3701.1,3325.9,3700.3,3316.5z"/>
	<path class="st2" d="M3483.8,3331.3L3483.8,3331.3L3483.8,3331.3c-9.9-0.9-17.2-9.6-16.3-19.5l0,0c0.9-9.9,9.6-17.2,19.5-16.3l0,0
		c9.9,0.9,17.2,9.6,16.3,19.5l0,0c-0.8,9.4-8.7,16.4-17.9,16.4l0,0C3484.9,3331.3,3484.3,3331.3,3483.8,3331.3z"/>
	<path class="st2" d="M3816,3302.7c-1.8-9.8,4.7-19.2,14.4-21l0,0c9.8-1.8,19.2,4.7,21,14.4l0,0c1.8,9.8-4.7,19.2-14.4,21l0,0l0,0
		l0,0c-1.1,0.2-2.2,0.3-3.3,0.3l0,0C3825.2,3317.4,3817.6,3311.3,3816,3302.7z"/>
	<path class="st2" d="M3366.8,3316.3c-9.8-1.6-16.4-10.9-14.8-20.7l0,0c1.6-9.8,10.9-16.4,20.7-14.8l0,0
		c9.8,1.7,16.4,10.9,14.8,20.7l0,0c-1.5,8.8-9.1,15-17.7,15l0,0C3368.8,3316.5,3367.8,3316.4,3366.8,3316.3z"/>
	<path class="st2" d="M3251.3,3292.2c-9.6-2.4-15.5-12.2-13.1-21.8l0,0c2.4-9.7,12.2-15.5,21.8-13.1l0,0
		c9.6,2.4,15.5,12.2,13.1,21.8l0,0c-2,8.2-9.4,13.7-17.4,13.7l0,0C3254.2,3292.7,3252.8,3292.6,3251.3,3292.2z"/>
	<path class="st2" d="M3929.9,3277.8c-2.7-9.6,2.9-19.5,12.5-22.2l0,0c9.6-2.7,19.5,2.9,22.2,12.5l0,0c2.7,9.6-2.9,19.5-12.5,22.2
		l0,0c-1.6,0.5-3.3,0.7-4.9,0.7l0,0C3939.4,3291,3932.2,3285.8,3929.9,3277.8z"/>
	<path class="st2" d="M3138,3259.2c-9.4-3.1-14.5-13.3-11.4-22.8l0,0c3.2-9.4,13.4-14.5,22.8-11.4l0,0c9.4,3.1,14.5,13.3,11.4,22.8
		l0,0c-2.5,7.5-9.5,12.3-17.1,12.3l0,0C3141.8,3260.2,3139.9,3259.9,3138,3259.2z"/>
	<path class="st2" d="M4041.2,3242.8c-3.5-9.3,1.2-19.7,10.5-23.2h0c9.3-3.5,19.7,1.2,23.2,10.5l0,0c3.5,9.3-1.2,19.7-10.5,23.2l0,0
		c0,0,0,0,0,0l0,0c-2.1,0.8-4.2,1.2-6.4,1.2l0,0C4050.8,3254.5,4043.9,3250,4041.2,3242.8z"/>
	<path class="st2" d="M3027.7,3217.6c-9.2-3.9-13.5-14.4-9.6-23.6l0,0c3.9-9.2,14.4-13.5,23.6-9.6l0,0c9.2,3.9,13.4,14.4,9.6,23.6
		l0,0c-2.9,6.9-9.6,11-16.6,11l0,0C3032.3,3219,3029.9,3218.5,3027.7,3217.6z"/>
	<path class="st2" d="M4149,3198.4c-4.3-9-0.5-19.7,8.5-24v0c9-4.3,19.7-0.5,24,8.5l0,0c4.3,9,0.5,19.7-8.5,24l0,0c0,0,0,0,0,0l0,0
		c-2.5,1.2-5.1,1.8-7.7,1.8l0,0C4158.6,3208.6,4152.1,3204.9,4149,3198.4z"/>
	<path class="st2" d="M2920.8,3167.5c-8.8-4.6-12.3-15.4-7.7-24.2l0,0c4.6-8.8,15.4-12.3,24.2-7.7l0,0c8.8,4.6,12.3,15.4,7.7,24.2
		l0,0c-3.2,6.2-9.5,9.7-16,9.7l0,0C2926.3,3169.5,2923.5,3168.9,2920.8,3167.5z"/>
	<path class="st2" d="M4252.9,3145.2c-5-8.6-2-19.6,6.6-24.6l0,0c8.6-5,19.6-2,24.6,6.5l0,0c5,8.6,2,19.6-6.6,24.6l0,0
		c-2.8,1.6-5.9,2.4-9,2.4l0,0C4262.3,3154.2,4256.2,3151,4252.9,3145.2z"/>
	<path class="st2" d="M2818.1,3109.4c-8.5-5.2-11.1-16.3-5.9-24.8l0,0c5.2-8.5,16.3-11.1,24.8-5.9l0,0c8.5,5.2,11.1,16.3,5.9,24.8
		l0,0c-3.4,5.5-9.3,8.5-15.3,8.5l0,0C2824.3,3112.1,2821,3111.2,2818.1,3109.4z"/>
	<path class="st2" d="M4352.2,3084.1c-5.6-8.2-3.5-19.4,4.6-25l0,0c8.2-5.6,19.4-3.6,25,4.6l0,0c5.6,8.2,3.6,19.4-4.6,25l0,0
		c-3.1,2.1-6.7,3.2-10.2,3.2l0,0C4361.3,3091.9,4355.7,3089.1,4352.2,3084.1z"/>
	<path class="st2" d="M2720.1,3043.5L2720.1,3043.5L2720.1,3043.5c-8-5.8-9.8-17.1-4-25.1l0,0c5.9-8,17.1-9.8,25.1-4l0,0
		c8,5.8,9.8,17.1,3.9,25.1l0,0c-3.5,4.8-9,7.4-14.6,7.4l0,0C2727,3047,2723.3,3045.9,2720.1,3043.5z"/>
	<path class="st2" d="M4446.6,3015.5c-6.2-7.7-5-19.1,2.8-25.3l0,0c7.7-6.2,19.1-5,25.3,2.7l0,0c6.2,7.7,5,19.1-2.7,25.3l0,0
		c-3.3,2.7-7.3,4-11.3,4l0,0C4455.3,3022.2,4450.1,3019.9,4446.6,3015.5z"/>
	<path class="st2" d="M2627.4,2970.4c-7.6-6.5-8.5-17.8-2-25.4l0,0c6.5-7.6,17.8-8.5,25.4-2l0,0c7.6,6.5,8.5,17.8,2,25.4l0,0
		c-3.6,4.2-8.6,6.3-13.7,6.3l0,0C2634.9,2974.7,2630.8,2973.3,2627.4,2970.4z"/>
	<path class="st2" d="M4535.5,2940.1c-6.8-7.3-6.4-18.7,0.8-25.4l0,0c7.3-6.8,18.7-6.4,25.4,0.8l0,0c6.8,7.3,6.4,18.7-0.9,25.4l0,0
		c-3.5,3.2-7.9,4.8-12.3,4.8l0,0C4543.9,2945.8,4539.1,2943.9,4535.5,2940.1z"/>
	<path class="st2" d="M2540.6,2890.4c-7-7-7.1-18.4,0-25.4l0,0c7-7.1,18.4-7.1,25.4-0.1l0,0c7.1,7,7.1,18.4,0.1,25.5l0,0
		c-3.5,3.5-8.1,5.3-12.8,5.3l0,0C2548.7,2895.6,2544.1,2893.9,2540.6,2890.4z"/>
	<path class="st2" d="M4618.7,2858.3c-7.3-6.7-7.8-18.1-1-25.4l0,0c6.7-7.3,18.1-7.8,25.4-1l0,0c7.3,6.7,7.8,18.1,1,25.4l0,0
		c-3.5,3.8-8.4,5.8-13.2,5.8l0,0C4626.5,2863,4622.1,2861.5,4618.7,2858.3z"/>
	<path class="st2" d="M2460.2,2803.9C2460.2,2803.9,2460.2,2803.9,2460.2,2803.9L2460.2,2803.9c-6.5-7.5-5.6-18.9,1.9-25.4l0,0
		c7.5-6.5,18.9-5.6,25.4,1.9l0,0c6.5,7.5,5.6,18.9-1.9,25.4l0,0c-3.4,2.9-7.6,4.4-11.7,4.3l0,0
		C2468.8,2810.2,2463.8,2808,2460.2,2803.9z"/>
	<path class="st2" d="M4695.5,2770.6c-7.8-6.2-9.1-17.5-2.9-25.3l0,0c6.2-7.8,17.5-9.1,25.3-2.9l0,0c7.8,6.2,9.1,17.5,2.9,25.3l0,0
		l0,0l0,0c-3.6,4.5-8.8,6.8-14.1,6.8l0,0C4702.8,2774.5,4698.8,2773.2,4695.5,2770.6z"/>
	<path class="st2" d="M2386.9,2711.3C2386.9,2711.3,2386.9,2711.3,2386.9,2711.3L2386.9,2711.3c-5.9-8-4.1-19.3,3.9-25.1l0,0
		c8-5.9,19.3-4.1,25.1,3.9l0,0c5.9,8,4.1,19.3-3.9,25.2l0,0c-3.2,2.3-6.9,3.5-10.6,3.5l0,0
		C2395.9,2718.7,2390.4,2716.2,2386.9,2711.3z"/>
	<path class="st2" d="M4765.5,2677.3c-8.2-5.6-10.4-16.8-4.8-25v0c5.6-8.2,16.8-10.4,25-4.8l0,0c8.2,5.6,10.4,16.8,4.8,25l0,0
		c-3.5,5.2-9.2,7.9-14.9,7.9l0,0C4772.1,2680.4,4768.6,2679.4,4765.5,2677.3z"/>
	<path class="st2" d="M2321.2,2613.2c-5.2-8.5-2.5-19.6,6-24.8l0,0c8.5-5.2,19.6-2.5,24.8,6l0,0c5.2,8.5,2.5,19.6-6,24.8l0,0
		c-2.9,1.8-6.2,2.6-9.4,2.6l0,0C2330.5,2621.8,2324.6,2618.7,2321.2,2613.2z"/>
	<path class="st2" d="M4828.1,2579c-8.7-4.9-11.7-15.9-6.8-24.5l0,0c4.9-8.7,15.9-11.7,24.5-6.8l0,0c8.6,4.9,11.7,15.9,6.8,24.5l0,0
		c-3.3,5.8-9.4,9.1-15.7,9.1l0,0C4834,2581.3,4830.9,2580.6,4828.1,2579z"/>
	<path class="st2" d="M2263.8,2509.9L2263.8,2509.9L2263.8,2509.9c-4.5-8.9-0.9-19.7,8-24.2l0,0c8.9-4.5,19.7-0.9,24.2,8l0,0
		c4.5,8.9,0.9,19.7-8,24.2l0,0c-2.6,1.3-5.4,1.9-8.1,1.9l0,0C2273.3,2519.8,2266.9,2516.2,2263.8,2509.9z"/>
	<path class="st2" d="M4882.7,2476c-9-4.2-13-14.9-8.8-23.9l0,0c4.2-9,14.9-13,23.9-8.8l0,0c9,4.2,13,14.9,8.8,23.9l0,0
		c-3,6.6-9.5,10.5-16.4,10.5l0,0C4887.7,2477.7,4885.1,2477.1,4882.7,2476z"/>
	<path class="st2" d="M2215.3,2402.1C2215.3,2402.1,2215.3,2402.1,2215.3,2402.1L2215.3,2402.1c-3.7-9.2,0.8-19.7,10.1-23.4l0,0
		c9.2-3.7,19.7,0.8,23.4,10.1h0c3.7,9.2-0.8,19.7-10.1,23.4l0,0c-2.2,0.9-4.4,1.3-6.6,1.3l0,0
		C2224.9,2413.5,2218.1,2409.2,2215.3,2402.1z"/>
	<path class="st2" d="M4928.5,2368.8c-9.3-3.4-14.2-13.7-10.8-23h0c3.4-9.3,13.7-14.2,23-10.8l0,0c9.3,3.4,14.2,13.7,10.8,23l0,0
		c-2.6,7.3-9.6,11.9-16.9,11.9l0,0C4932.6,2369.9,4930.5,2369.5,4928.5,2368.8z"/>
	<path class="st2" d="M2176.5,2290.5c-2.8-9.5,2.6-19.5,12.1-22.4l0,0c9.5-2.8,19.5,2.6,22.4,12.1l0,0c2.8,9.5-2.6,19.5-12.1,22.4
		l0,0c-1.7,0.5-3.4,0.8-5.1,0.8l0,0C2186,2303.3,2178.8,2298.3,2176.5,2290.5z"/>
	<path class="st2" d="M4964.7,2258c-9.6-2.5-15.4-12.4-12.8-22l0,0c2.5-9.6,12.3-15.4,22-12.8l0,0c9.6,2.5,15.4,12.4,12.8,22l0,0
		c-2.1,8.1-9.4,13.5-17.4,13.5l0,0C4967.8,2258.6,4966.2,2258.4,4964.7,2258z"/>
	<path class="st2" d="M2148,2175.7L2148,2175.7L2148,2175.7c-1.9-9.8,4.4-19.2,14.1-21.2l0,0c9.8-1.9,19.2,4.4,21.2,14.1l0,0
		c1.9,9.8-4.4,19.2-14.1,21.2l0,0c-1.2,0.2-2.4,0.3-3.5,0.3l0,0C2157.2,2190.2,2149.7,2184.3,2148,2175.7z"/>
	<path class="st2" d="M4990.5,2144.4c-9.8-1.6-16.5-10.8-14.9-20.6l0,0c1.6-9.8,10.8-16.5,20.6-14.9l0,0
		c9.8,1.6,16.5,10.8,14.9,20.6l0,0c-1.4,8.8-9.1,15.1-17.8,15.1l0,0C4992.4,2144.6,4991.5,2144.5,4990.5,2144.4z"/>
	<path class="st2" d="M2130.5,2058.7c-1-9.9,6.2-18.7,16.1-19.7l0,0c9.9-1,18.7,6.2,19.7,16.1l0,0c1,9.9-6.2,18.7-16.1,19.7l0,0
		c-0.6,0.1-1.2,0.1-1.8,0.1l0,0C2139.2,2074.9,2131.4,2068,2130.5,2058.7z"/>
	<path class="st2" d="M5005.1,2028.8c-9.9-0.6-17.5-9.1-16.9-19l0,0c0.6-9.9,9.1-17.5,19-16.9l0,0c9.9,0.6,17.5,9.1,16.9,19l0,0l0,0
		l0,0c-0.6,9.6-8.5,16.9-18,16.9l0,0C5005.8,2028.8,5005.5,2028.8,5005.1,2028.8z"/>
	<path class="st2" d="M2124.4,1940.6C2124.4,1940.6,2124.4,1940.6,2124.4,1940.6L2124.4,1940.6c0-0.3,0-0.6,0-0.9l0,0
		c0-0.3,0-0.6,0-0.9l0,0l0,0l0,0c0-10,8.1-18,18-18l0,0c9.9,0,18,8.1,18,18l0,0c0,0.3,0,0.5,0,0.8l0,0c0,0.3,0,0.6,0,0.9l0,0
		c0,9.9-8,18-18,18l0,0c0,0,0,0,0,0l0,0C2132.5,1958.6,2124.4,1950.5,2124.4,1940.6z"/>
	<path class="st2" d="M4989.4,1894.8c-0.3-9.9,7.5-18.2,17.4-18.6l0,0c9.9-0.3,18.2,7.5,18.6,17.4l0,0c0.3,9.9-7.5,18.2-17.4,18.6
		l0,0c-0.2,0-0.4,0-0.6,0l0,0C4997.7,1912.2,4989.7,1904.5,4989.4,1894.8z"/>
	<path class="st2" d="M2145.7,1840.3c-9.9-0.8-17.3-9.5-16.4-19.4l0,0l0,0l0,0c0.8-9.9,9.5-17.3,19.4-16.5l0,0
		c9.9,0.8,17.3,9.5,16.5,19.4l0,0c-0.8,9.4-8.7,16.5-17.9,16.5l0,0C2146.7,1840.4,2146.2,1840.4,2145.7,1840.3z"/>
	<path class="st2" d="M4981.4,1779.8c-1-9.9,6.1-18.8,16-19.8l0,0c9.9-1,18.8,6.1,19.8,16l0,0c1.1,9.9-6.1,18.8-16,19.8l0,0
		c-0.7,0.1-1.3,0.1-1.9,0.1l0,0C4990.2,1795.9,4982.4,1789.1,4981.4,1779.8z"/>
	<path class="st2" d="M2158.8,1724.5c-9.8-1.7-16.4-11-14.7-20.8l0,0l0,0l0,0c1.7-9.8,10.9-16.4,20.8-14.7l0,0
		c9.8,1.7,16.4,11,14.7,20.8l0,0c-1.5,8.8-9.1,15-17.7,15l0,0C2160.8,1724.8,2159.8,1724.7,2158.8,1724.5z"/>
	<path class="st2" d="M4964.8,1665.9c-1.8-9.8,4.6-19.2,14.4-21l0,0c9.8-1.8,19.2,4.6,21,14.4l0,0c1.8,9.8-4.6,19.2-14.4,21l0,0
		c-1.1,0.2-2.2,0.3-3.3,0.3l0,0C4974,1680.6,4966.4,1674.5,4964.8,1665.9z"/>
	<path class="st2" d="M2181.7,1610.3c-9.6-2.5-15.4-12.3-12.9-21.9l0,0c2.5-9.6,12.3-15.4,22-12.9l0,0c9.6,2.5,15.4,12.3,12.9,21.9
		l0,0c-2.1,8.1-9.4,13.5-17.4,13.5l0,0C2184.7,1610.8,2183.2,1610.7,2181.7,1610.3z"/>
	<path class="st2" d="M4939.3,1553.6L4939.3,1553.6c-2.6-9.6,3.1-19.5,12.7-22.1l0,0c9.6-2.6,19.5,3.1,22.1,12.7l0,0
		c2.6,9.6-3.1,19.5-12.7,22.1l0,0c-1.6,0.4-3.1,0.6-4.7,0.6l0,0C4948.8,1566.9,4941.5,1561.6,4939.3,1553.6z"/>
	<path class="st2" d="M2214.3,1498.4c-9.4-3.3-14.3-13.6-11-23l0,0c3.3-9.4,13.6-14.3,23-11l0,0c9.4,3.3,14.3,13.6,11,23l0,0
		c-2.6,7.4-9.5,12-17,12l0,0C2218.3,1499.4,2216.3,1499.1,2214.3,1498.4z"/>
	<path class="st2" d="M4905,1443.8c-3.4-9.4,1.5-19.7,10.9-23l0,0c9.4-3.4,19.7,1.5,23,10.9l0,0c3.3,9.4-1.5,19.7-10.9,23l0,0
		c-2,0.7-4,1.1-6.1,1.1l0,0C4914.5,1455.7,4907.6,1451.1,4905,1443.8z"/>
	<path class="st2" d="M2256.4,1389.6c-9.1-4.1-13.1-14.8-8.9-23.8l0,0c0,0,0,0,0,0l0,0c4.1-9.1,14.8-13.1,23.8-9l0,0
		c9.1,4.1,13.1,14.8,9,23.8l0,0c-3,6.6-9.6,10.6-16.4,10.6l0,0C2261.4,1391.2,2258.9,1390.7,2256.4,1389.6z"/>
	<path class="st2" d="M4861.7,1337.1c-4.1-9-0.1-19.7,9-23.8l0,0c9-4.1,19.7-0.1,23.8,8.9l0,0c4.1,9.1,0.1,19.7-8.9,23.8l0,0
		c-2.4,1.1-5,1.6-7.4,1.6l0,0C4871.3,1347.7,4864.8,1343.8,4861.7,1337.1z"/>
	<path class="st2" d="M2307.8,1284.9c-8.7-4.9-11.8-15.8-6.9-24.5l0,0c4.9-8.7,15.8-11.8,24.5-6.9l0,0c8.7,4.9,11.8,15.8,6.9,24.5
		l0,0c-3.3,5.9-9.4,9.2-15.7,9.2l0,0C2313.6,1287.2,2310.6,1286.5,2307.8,1284.9z"/>
	<path class="st2" d="M4809.8,1234.4c-4.8-8.7-1.8-19.6,6.9-24.5l0,0c8.7-4.9,19.6-1.8,24.5,6.9l0,0c4.9,8.7,1.8,19.6-6.9,24.5l0,0
		c-2.8,1.6-5.8,2.3-8.8,2.3l0,0C4819.2,1243.7,4813.1,1240.3,4809.8,1234.4z"/>
	<path class="st2" d="M2367.9,1185c-8.2-5.6-10.4-16.8-4.8-25l0,0c5.6-8.2,16.8-10.4,25-4.8l0,0c8.2,5.6,10.4,16.8,4.8,25l0,0
		c-3.5,5.1-9.1,7.9-14.9,7.9l0,0C2374.5,1188.1,2371,1187.1,2367.9,1185z"/>
	<path class="st2" d="M4749.5,1136.6L4749.5,1136.6c-5.6-8.2-3.4-19.4,4.8-25l0,0c8.2-5.6,19.4-3.4,25,4.8l0,0
		c5.6,8.2,3.4,19.4-4.8,25l0,0c-3.1,2.1-6.6,3.1-10.1,3.1l0,0C4758.6,1144.5,4753,1141.7,4749.5,1136.6z"/>
	<path class="st2" d="M2436.1,1090.4c-7.7-6.2-8.9-17.6-2.7-25.3l0,0c6.2-7.7,17.6-8.9,25.3-2.7l0,0c7.7,6.2,8.9,17.6,2.7,25.3l0,0
		c-3.6,4.4-8.8,6.7-14,6.7l0,0C2443.4,1094.4,2439.4,1093.1,2436.1,1090.4z"/>
	<path class="st2" d="M4681,1044.2c-6.3-7.7-5.1-19.1,2.7-25.3l0,0c7.7-6.3,19.1-5.1,25.3,2.7l0,0c6.3,7.7,5.1,19.1-2.7,25.3l0,0
		c-3.3,2.7-7.3,4-11.3,4l0,0C4689.8,1050.9,4684.6,1048.6,4681,1044.2z"/>
	<path class="st2" d="M2511.9,1001.9c-7.2-6.9-7.5-18.3-0.6-25.4l0,0c6.9-7.2,18.3-7.5,25.4-0.6l0,0c7.2,6.9,7.5,18.2,0.6,25.4l0,0
		c-3.5,3.7-8.3,5.6-13,5.6l0,0C2519.9,1006.9,2515.4,1005.2,2511.9,1001.9z"/>
	<path class="st2" d="M4604.8,958.1c-6.9-7.2-6.7-18.5,0.5-25.4l0,0c7.2-6.9,18.6-6.7,25.5,0.4l0,0c6.9,7.2,6.7,18.6-0.5,25.5l0,0
		c-3.5,3.4-8,5-12.5,5l0,0C4613.1,963.6,4608.4,961.8,4604.8,958.1z"/>
	<path class="st2" d="M2594.8,919.9c-6.6-7.4-5.9-18.8,1.5-25.4l0,0l0,0l0,0c7.4-6.6,18.8-5.9,25.4,1.5l0,0c6.6,7.4,6,18.8-1.5,25.4
		l0,0c-3.4,3.1-7.7,4.6-12,4.6l0,0C2603.2,925.9,2598.3,923.9,2594.8,919.9z"/>
	<path class="st2" d="M4521.5,878.9c-7.5-6.5-8.3-17.9-1.8-25.4l0,0c6.5-7.5,17.9-8.3,25.4-1.8l0,0c7.5,6.5,8.3,17.9,1.8,25.4l0,0
		c-3.6,4.1-8.6,6.2-13.6,6.2l0,0C4529.1,883.3,4524.9,881.9,4521.5,878.9z"/>
	<path class="st2" d="M2683.9,844.8c-6-7.9-4.4-19.2,3.5-25.2l0,0c7.9-6,19.2-4.4,25.2,3.5l0,0c6,7.9,4.4,19.2-3.5,25.2l0,0
		c-3.2,2.4-7.1,3.6-10.8,3.6l0,0C2692.8,851.9,2687.4,849.5,2683.9,844.8z"/>
	<path class="st2" d="M4431.5,807.2L4431.5,807.2c-8-5.9-9.8-17.1-4-25.1l0,0c5.8-8,17.1-9.8,25.2-4l0,0c0,0,0,0,0,0l0,0
		c8,5.9,9.8,17.1,4,25.1l0,0c-3.5,4.8-9,7.4-14.6,7.4l0,0C4438.4,810.7,4434.7,809.6,4431.5,807.2z"/>
	<path class="st2" d="M2778.7,777.1c-5.3-8.4-2.9-19.5,5.5-24.9l0,0c8.4-5.4,19.5-2.9,24.9,5.5l0,0c5.4,8.4,2.9,19.5-5.5,24.9l0,0
		c-3,1.9-6.4,2.8-9.7,2.8l0,0C2788,785.4,2782.2,782.4,2778.7,777.1z"/>
	<path class="st2" d="M4335.7,743.6c-8.5-5.1-11.3-16.2-6.1-24.7l0,0c5.1-8.5,16.2-11.3,24.7-6.1l0,0c8.5,5.1,11.3,16.2,6.1,24.7
		l0,0c-3.4,5.6-9.3,8.7-15.4,8.7l0,0C4341.8,746.2,4338.6,745.4,4335.7,743.6z"/>
	<path class="st2" d="M2878.6,717c-4.7-8.8-1.4-19.7,7.4-24.4l0,0c8.8-4.7,19.7-1.4,24.3,7.4l0,0c4.7,8.8,1.4,19.7-7.4,24.3l0,0
		c-2.7,1.4-5.6,2.1-8.5,2.1l0,0C2888.1,726.6,2881.8,723.1,2878.6,717z"/>
	<path class="st2" d="M4234.6,688.6c-8.9-4.4-12.6-15.1-8.2-24.1l0,0c4.4-8.9,15.1-12.6,24.1-8.2l0,0l0,0l0,0
		c8.9,4.4,12.6,15.1,8.2,24.1l0,0c-3.1,6.4-9.5,10.1-16.2,10.1l0,0C4239.9,690.4,4237.2,689.8,4234.6,688.6z"/>
	<path class="st2" d="M2982.8,665c-4-9.1,0.2-19.7,9.3-23.7l0,0c9.1-4,19.7,0.2,23.7,9.3l0,0c4,9.1-0.2,19.7-9.3,23.7l0,0
		c-2.3,1-4.8,1.5-7.2,1.5l0,0C2992.4,675.8,2985.8,671.7,2982.8,665z"/>
	<path class="st2" d="M4129.3,642.5c-9.3-3.6-13.9-14-10.3-23.3l0,0c3.6-9.3,14-13.9,23.3-10.3l0,0c9.3,3.6,13.9,14,10.3,23.3l0,0
		c-2.8,7.1-9.6,11.5-16.8,11.5l0,0C4133.6,643.7,4131.4,643.3,4129.3,642.5z"/>
	<path class="st2" d="M3090.7,621.1c-3.3-9.4,1.7-19.6,11.1-22.9l0,0l0,0l0,0c9.4-3.3,19.7,1.7,22.9,11.1l0,0
		c3.3,9.4-1.7,19.6-11.1,22.9l0,0c-2,0.7-4,1-5.9,1l0,0C3100.3,633.2,3093.3,628.5,3090.7,621.1z"/>
	<path class="st2" d="M4020.4,605.5c-9.5-2.8-15-12.8-12.2-22.3l0,0c2.8-9.5,12.8-15,22.3-12.2l0,0l0,0l0,0
		c9.5,2.8,15,12.8,12.2,22.3l0,0c-2.3,7.9-9.5,12.9-17.3,12.9l0,0C4023.8,606.2,4022,606,4020.4,605.5z"/>
	<path class="st2" d="M3201.8,585.7c-2.5-9.6,3.2-19.5,12.8-22l0,0c9.6-2.6,19.5,3.2,22,12.8l0,0c2.5,9.6-3.2,19.5-12.8,22l0,0
		c-1.5,0.4-3.1,0.6-4.6,0.6l0,0C3211.2,599.1,3203.9,593.8,3201.8,585.7z"/>
	<path class="st2" d="M3908.7,577.7c-9.7-2-16-11.5-14-21.3l0,0c2-9.7,11.5-16,21.3-14l0,0c9.7,2,16,11.5,14,21.2l0,0
		c-1.8,8.5-9.2,14.4-17.6,14.4l0,0C3911.2,578,3909.9,577.9,3908.7,577.7z"/>
	<path class="st2" d="M3315.3,558.9c-1.8-9.8,4.7-19.2,14.4-21l0,0c9.8-1.8,19.2,4.7,21,14.4l0,0c1.8,9.8-4.7,19.2-14.4,21l0,0
		c-1.1,0.2-2.2,0.3-3.3,0.3l0,0C3324.4,573.6,3316.9,567.5,3315.3,558.9z"/>
	<path class="st2" d="M3795.1,559.1c-9.9-1.2-16.9-10.2-15.7-20.1l0,0c1.2-9.9,10.2-16.9,20.1-15.7l0,0c9.9,1.2,16.9,10.2,15.7,20.1
		l0,0c-1.1,9.1-8.9,15.8-17.8,15.8l0,0C3796.6,559.2,3795.9,559.1,3795.1,559.1z"/>
	<path class="st2" d="M3430.4,540.8c-1.1-9.9,6.1-18.8,16-19.8l0,0c0,0,0,0,0,0l0,0c9.9-1.1,18.8,6.1,19.8,16l0,0
		c1.1,9.9-6.1,18.8-16,19.8l0,0c-0.6,0.1-1.3,0.1-1.9,0.1l0,0C3439.2,556.8,3431.4,550,3430.4,540.8z"/>
	<path class="st2" d="M3680.4,549.5c-9.9-0.4-17.6-8.9-17.2-18.8l0,0c0.4-9.9,8.8-17.6,18.8-17.2l0,0l0,0l0,0
		c9.9,0.4,17.6,8.9,17.2,18.8l0,0c-0.4,9.7-8.4,17.2-18,17.2l0,0C3680.9,549.5,3680.7,549.5,3680.4,549.5z"/>
	<path class="st2" d="M3546.6,531.4c-0.3-9.9,7.5-18.2,17.4-18.5l0,0c9.9-0.3,18.2,7.5,18.5,17.4l0,0c0.3,9.9-7.5,18.2-17.4,18.6
		l0,0c-0.2,0-0.4,0-0.6,0l0,0C3554.9,548.8,3546.9,541.1,3546.6,531.4z"/>
	<path class="st2" d="M3629.2,3200.3c-0.2-9.9,7.7-18.2,17.6-18.4l0,0c9.9-0.2,18.2,7.7,18.4,17.6l0,0c0.2,9.9-7.7,18.2-17.6,18.4
		l0,0c-0.1,0-0.3,0-0.4,0l0,0C3637.5,3217.9,3629.4,3210.1,3629.2,3200.3z"/>
	<path class="st2" d="M3530.9,3216L3530.9,3216L3530.9,3216c-9.9-0.5-17.6-9-17-18.9l0,0c0.5-9.9,9-17.6,18.9-17v0
		c9.9,0.5,17.6,9,17,18.9l0,0c-0.5,9.6-8.5,17.1-18,17.1l0,0C3531.6,3216,3531.3,3216,3530.9,3216z"/>
	<path class="st2" d="M3744.4,3194.2c-1.1-9.9,6-18.8,15.9-19.9l0,0c9.9-1.1,18.8,6,19.9,15.9l0,0c1.1,9.9-6,18.8-15.9,19.9l0,0
		c-0.7,0.1-1.4,0.1-2,0.1l0,0C3753.2,3210.2,3745.4,3203.4,3744.4,3194.2z"/>
	<path class="st2" d="M3414.8,3205.8c-9.9-1.2-16.9-10.2-15.6-20.1l0,0c1.2-9.9,10.2-16.9,20.1-15.7l0,0
		c9.9,1.2,16.9,10.2,15.6,20.1l0,0c-1.1,9.1-8.9,15.8-17.8,15.8l0,0C3416.3,3205.9,3415.5,3205.9,3414.8,3205.8z"/>
	<path class="st2" d="M3858.5,3177.7c-2-9.7,4.2-19.3,14-21.3l0,0c9.7-2,19.3,4.2,21.3,14l0,0c2,9.7-4.2,19.3-14,21.3l0,0
		c-1.2,0.3-2.5,0.4-3.7,0.4l0,0C3867.8,3192,3860.3,3186.2,3858.5,3177.7z"/>
	<path class="st2" d="M3299.6,3187L3299.6,3187L3299.6,3187c-9.8-2-16-11.5-14.1-21.2l0,0c2-9.7,11.5-16,21.2-14l0,0
		c9.7,2,16,11.5,14.1,21.2l0,0c-1.7,8.5-9.2,14.4-17.6,14.4l0,0C3302,3187.4,3300.8,3187.2,3299.6,3187z"/>
	<path class="st2" d="M3970.7,3150.6c-2.9-9.5,2.4-19.6,11.9-22.5l0,0c9.5-2.9,19.6,2.4,22.5,11.9l0,0c2.9,9.5-2.4,19.6-11.9,22.5
		l0,0c-1.8,0.5-3.6,0.8-5.3,0.8l0,0C3980.2,3163.3,3973,3158.3,3970.7,3150.6z"/>
	<path class="st2" d="M3186.1,3159.2C3186.1,3159.2,3186.1,3159.2,3186.1,3159.2L3186.1,3159.2c-9.6-2.8-15.1-12.7-12.3-22.3l0,0
		c2.8-9.6,12.7-15.1,22.3-12.3l0,0c9.5,2.8,15,12.7,12.3,22.3l0,0c-2.3,7.9-9.5,13-17.3,13l0,0
		C3189.5,3159.9,3187.8,3159.7,3186.1,3159.2z"/>
	<path class="st2" d="M4079.7,3113c-3.8-9.2,0.5-19.7,9.7-23.5l0,0c9.2-3.8,19.7,0.5,23.5,9.7l0,0c3.8,9.2-0.5,19.7-9.7,23.5l0,0
		c-2.3,0.9-4.6,1.4-6.9,1.4l0,0C4089.3,3124.1,4082.6,3119.9,4079.7,3113z"/>
	<path class="st2" d="M3075.3,3122.1c-9.3-3.6-13.9-14-10.4-23.2l0,0c3.6-9.3,14-13.9,23.2-10.4l0,0c9.3,3.6,13.9,14,10.4,23.2l0,0
		c-2.7,7.2-9.6,11.6-16.8,11.6l0,0C3079.6,3123.3,3077.4,3122.9,3075.3,3122.1z"/>
	<path class="st2" d="M2968.1,3075.5C2968.1,3075.5,2968.1,3075.5,2968.1,3075.5L2968.1,3075.5c-8.9-4.4-12.6-15.2-8.3-24.1l0,0
		c4.4-8.9,15.2-12.6,24.1-8.3l0,0c8.9,4.4,12.6,15.2,8.3,24.1l0,0c-3.1,6.4-9.5,10.1-16.2,10.1l0,0
		C2973.3,3077.3,2970.6,3076.7,2968.1,3075.5z"/>
	<path class="st2" d="M4184.8,3065.3c-4.7-8.8-1.3-19.7,7.5-24.3l0,0c8.8-4.7,19.7-1.3,24.3,7.5l0,0c4.7,8.8,1.3,19.7-7.5,24.3l0,0
		c-2.7,1.4-5.6,2.1-8.4,2.1l0,0C4194.2,3074.9,4188,3071.4,4184.8,3065.3z"/>
	<path class="st2" d="M2865.4,3019.4c-8.5-5.2-11.2-16.2-6-24.7l0,0c5.2-8.5,16.2-11.2,24.7-6l0,0c8.5,5.2,11.2,16.2,6,24.7l0,0
		c-3.4,5.6-9.3,8.7-15.4,8.7l0,0C2871.6,3022,2868.4,3021.1,2865.4,3019.4z"/>
	<path class="st2" d="M4284.8,3007.9c-5.5-8.3-3.2-19.5,5.1-24.9l0,0c8.3-5.5,19.5-3.2,24.9,5.1l0,0c5.5,8.3,3.2,19.5-5.1,24.9l0,0
		l0,0l0,0c-3,2-6.5,3-9.9,3l0,0C4294,3016,4288.3,3013.2,4284.8,3007.9z"/>
	<path class="st2" d="M2768.4,2954c-8-5.9-9.6-17.2-3.7-25.2l0,0c5.9-8,17.2-9.6,25.2-3.7l0,0c8,5.9,9.6,17.2,3.7,25.2l0,0
		c-3.5,4.7-9,7.2-14.5,7.2l0,0C2775.4,2957.6,2771.6,2956.4,2768.4,2954z"/>
	<path class="st2" d="M4379.1,2941.5c-6.2-7.8-5-19.1,2.8-25.3l0,0c7.8-6.2,19.1-5,25.3,2.8l0,0c6.2,7.8,5,19.1-2.8,25.3l0,0l0,0
		l0,0c-3.3,2.7-7.3,4-11.2,4l0,0C4387.9,2948.2,4382.7,2945.9,4379.1,2941.5z"/>
	<path class="st2" d="M2677.9,2879.8c-7.4-6.7-8-18-1.3-25.4l0,0c6.7-7.4,18-8,25.4-1.3v0c7.4,6.7,7.9,18,1.3,25.4l0,0
		c-3.6,3.9-8.5,5.9-13.4,5.9l0,0C2685.6,2884.4,2681.3,2882.9,2677.9,2879.8z"/>
	<path class="st2" d="M4466.8,2866.5c-6.9-7.2-6.7-18.5,0.5-25.5l0,0c7.2-6.9,18.5-6.7,25.5,0.4l0,0c6.9,7.2,6.7,18.5-0.5,25.5l0,0
		c-3.5,3.4-8,5-12.5,5l0,0C4475.1,2872,4470.4,2870.2,4466.8,2866.5z"/>
	<path class="st2" d="M2594.8,2797.2L2594.8,2797.2L2594.8,2797.2c-6.7-7.3-6.2-18.7,1.1-25.4l0,0c7.3-6.7,18.7-6.2,25.4,1.2l0,0
		c6.7,7.3,6.2,18.7-1.2,25.4l0,0c-3.4,3.2-7.8,4.7-12.1,4.7l0,0C2603.3,2803.1,2598.4,2801.1,2594.8,2797.2z"/>
	<path class="st2" d="M4547.3,2783.8c-7.5-6.5-8.4-17.9-1.9-25.4l0,0c6.5-7.5,17.9-8.4,25.4-1.9l0,0c7.5,6.5,8.4,17.9,1.9,25.4l0,0
		l0,0l0,0c-3.6,4.1-8.6,6.2-13.6,6.2l0,0C4554.9,2788.1,4550.7,2786.7,4547.3,2783.8z"/>
	<path class="st2" d="M2520.1,2707.1c-6-8-4.4-19.2,3.6-25.2l0,0c8-6,19.2-4.4,25.2,3.6l0,0c6,7.9,4.4,19.2-3.6,25.2l0,0
		c-3.2,2.4-7,3.6-10.8,3.6l0,0C2529.1,2714.2,2523.7,2711.8,2520.1,2707.1z"/>
	<path class="st2" d="M4619.8,2694.1c-8.1-5.8-10-17-4.2-25.1l0,0c5.8-8.1,17-10,25.1-4.2l0,0c8.1,5.8,10,17,4.2,25.1l0,0
		c-3.5,4.9-9,7.5-14.7,7.5l0,0C4626.7,2697.4,4623,2696.3,4619.8,2694.1z"/>
	<path class="st2" d="M2454.4,2610.2c-5.2-8.5-2.5-19.6,6-24.8l0,0c8.5-5.2,19.6-2.5,24.8,6l0,0c5.2,8.5,2.5,19.6-6,24.8l0,0
		c-2.9,1.8-6.2,2.6-9.4,2.6l0,0C2463.7,2618.8,2457.8,2615.7,2454.4,2610.2z"/>
	<path class="st2" d="M4683.9,2598.1c-8.6-5-11.5-16.1-6.4-24.6l0,0c5-8.6,16-11.5,24.6-6.4l0,0c8.6,5,11.5,16,6.5,24.6l0,0
		c-3.3,5.7-9.4,8.9-15.6,8.9l0,0C4689.9,2600.6,4686.8,2599.8,4683.9,2598.1z"/>
	<path class="st2" d="M2398.1,2507.5c-4.4-8.9-0.6-19.7,8.3-24.1l0,0c8.9-4.4,19.7-0.7,24.1,8.3l0,0c4.4,8.9,0.6,19.7-8.3,24.1l0,0
		c-2.5,1.2-5.2,1.8-7.9,1.8l0,0C2407.7,2517.6,2401.3,2513.9,2398.1,2507.5z"/>
	<path class="st2" d="M4739.1,2496.8c-9-4.2-12.9-15-8.7-24l0,0c4.2-9,14.9-12.9,23.9-8.6l0,0c9,4.2,12.9,14.9,8.6,23.9l0,0l0,0l0,0
		c-3.1,6.5-9.5,10.4-16.3,10.4l0,0C4744.2,2498.5,4741.6,2497.9,4739.1,2496.8z"/>
	<path class="st2" d="M2351.8,2400c-3.5-9.3,1.2-19.7,10.5-23.2l0,0c9.3-3.5,19.7,1.2,23.2,10.5l0,0c3.5,9.3-1.2,19.7-10.5,23.2l0,0
		c-2.1,0.8-4.2,1.2-6.3,1.2l0,0C2361.4,2411.7,2354.5,2407.3,2351.8,2400z"/>
	<path class="st2" d="M4784.8,2390.8c-9.4-3.4-14.2-13.7-10.8-23l0,0c3.4-9.4,13.7-14.2,23.1-10.8l0,0c9.3,3.4,14.2,13.7,10.8,23
		l0,0c-2.7,7.3-9.6,11.9-16.9,11.9l0,0C4788.9,2391.9,4786.8,2391.5,4784.8,2390.8z"/>
	<path class="st2" d="M2315.7,2288.8c-2.6-9.6,3-19.5,12.6-22.1l0,0c9.6-2.6,19.5,3,22.1,12.6l0,0c2.6,9.6-3,19.5-12.6,22.1l0,0
		c-1.6,0.4-3.2,0.6-4.8,0.6l0,0C2325.1,2302,2317.9,2296.8,2315.7,2288.8z"/>
	<path class="st2" d="M4820.7,2281.1c-9.6-2.5-15.4-12.4-12.8-22l0,0c2.5-9.6,12.4-15.4,22-12.8l0,0c9.6,2.5,15.4,12.4,12.8,22l0,0
		l0,0l0,0c-2.1,8.1-9.4,13.4-17.4,13.4l0,0C4823.8,2281.7,4822.2,2281.5,4820.7,2281.1z"/>
	<path class="st2" d="M2289.8,2174.7C2289.8,2174.7,2289.8,2174.7,2289.8,2174.7L2289.8,2174.7c-1.8-9.8,4.8-19.1,14.5-20.9l0,0
		c9.8-1.8,19.1,4.8,20.9,14.5l0,0c1.8,9.8-4.8,19.1-14.5,20.9l0,0c-1.1,0.2-2.1,0.3-3.2,0.3l0,0
		C2299,2189.5,2291.4,2183.4,2289.8,2174.7z"/>
	<path class="st2" d="M4846.4,2168.6c-9.8-1.6-16.4-10.9-14.8-20.7l0,0c1.6-9.8,10.9-16.4,20.7-14.8l0,0
		c9.8,1.6,16.4,10.9,14.8,20.7l0,0c-1.5,8.8-9.1,15-17.7,15l0,0C4848.4,2168.9,4847.4,2168.8,4846.4,2168.6z"/>
	<path class="st2" d="M2274.3,2058.8c-0.9-9.9,6.4-18.6,16.3-19.5l0,0c9.9-0.9,18.6,6.4,19.5,16.3l0,0c0.9,9.9-6.4,18.7-16.3,19.5
		l0,0c-0.6,0-1.1,0.1-1.6,0.1l0,0C2283,2075.2,2275.1,2068.1,2274.3,2058.8z"/>
	<path class="st2" d="M4861.8,2054.3c-9.9-0.7-17.4-9.4-16.6-19.3l0,0c0.7-9.9,9.3-17.4,19.3-16.6l0,0c9.9,0.7,17.4,9.3,16.6,19.3
		l0,0c0,0,0,0,0,0l0,0c-0.7,9.5-8.6,16.7-17.9,16.7l0,0C4862.7,2054.3,4862.2,2054.3,4861.8,2054.3z"/>
	<path class="st2" d="M2269,1942c0-0.5,0-1,0.1-1.6l0,0c0-0.5-0.1-1-0.1-1.6l0,0c0-9.9,8-18,18-18l0,0c9.9,0,18,8.1,18,18l0,0
		c0,0.5,0,1-0.1,1.5l0,0c0,0.5,0.1,1,0.1,1.5l0,0c0,9.9-8,18-18,18l0,0c0,0,0,0,0,0l0,0C2277.1,1959.9,2269,1951.9,2269,1942z"/>
	<path class="st2" d="M4848.2,1921.3c-0.1-9.9,7.8-18.1,17.7-18.3l0,0c9.9-0.1,18.1,7.8,18.3,17.7l0,0l0,0l0,0
		c0.2,9.9-7.8,18.1-17.7,18.3l0,0c-0.1,0-0.2,0-0.3,0l0,0C4856.4,1939,4848.4,1931.1,4848.2,1921.3z"/>
	<path class="st2" d="M2290.1,1841.5c-9.9-0.8-17.3-9.5-16.5-19.4l0,0c0.8-9.9,9.5-17.3,19.4-16.5l0,0c9.9,0.8,17.3,9.4,16.5,19.4
		l0,0c-0.8,9.4-8.6,16.6-17.9,16.6l0,0C2291,1841.6,2290.5,1841.6,2290.1,1841.5z"/>
	<path class="st2" d="M4842,1807.6L4842,1807.6c-0.9-9.9,6.3-18.7,16.2-19.6l0,0c9.9-0.9,18.7,6.3,19.6,16.2l0,0
		c0.9,9.9-6.3,18.7-16.2,19.6l0,0c-0.6,0.1-1.1,0.1-1.7,0.1l0,0C4850.8,1823.9,4842.9,1816.9,4842,1807.6z"/>
	<path class="st2" d="M2302.4,1726.9c-9.8-1.6-16.5-10.9-14.9-20.7l0,0c1.6-9.8,10.9-16.5,20.7-14.9l0,0
		c9.8,1.6,16.5,10.9,14.9,20.7l0,0c-1.5,8.8-9.1,15.1-17.8,15.1l0,0C2304.4,1727.1,2303.4,1727,2302.4,1726.9z"/>
	<path class="st2" d="M4826.6,1694.8c-1.8-9.8,4.8-19.1,14.5-20.9l0,0c9.8-1.8,19.1,4.8,20.9,14.5l0,0c1.8,9.8-4.7,19.1-14.5,20.9
		l0,0c-1.1,0.2-2.1,0.3-3.2,0.3l0,0C4835.8,1709.6,4828.2,1703.5,4826.6,1694.8z"/>
	<path class="st2" d="M2324.5,1613.7c-9.6-2.5-15.4-12.3-13-21.9l0,0c0,0,0,0,0,0l0,0c2.5-9.6,12.3-15.4,21.9-13l0,0
		c9.6,2.5,15.4,12.3,13,21.9l0,0c-2.1,8.1-9.4,13.5-17.4,13.5l0,0C2327.5,1614.3,2326,1614.1,2324.5,1613.7z"/>
	<path class="st2" d="M4801.7,1583.8c-2.6-9.6,3.1-19.5,12.7-22.1l0,0c9.6-2.6,19.5,3.1,22.1,12.7l0,0c2.6,9.6-3.1,19.5-12.7,22.1
		l0,0c-1.6,0.4-3.2,0.6-4.7,0.6l0,0C4811.1,1597.1,4803.9,1591.8,4801.7,1583.8z"/>
	<path class="st2" d="M2356.7,1502.9c-9.4-3.3-14.2-13.6-10.9-23l0,0c3.4-9.4,13.7-14.2,23-10.9l0,0c9.4,3.4,14.2,13.6,10.9,23l0,0
		c-2.6,7.4-9.6,11.9-17,11.9l0,0C2360.7,1504,2358.7,1503.7,2356.7,1502.9z"/>
	<path class="st2" d="M4767,1475.5c-3.5-9.3,1.3-19.7,10.6-23.1l0,0c9.3-3.5,19.7,1.3,23.1,10.6l0,0c3.5,9.3-1.3,19.7-10.6,23.1l0,0
		c-2.1,0.8-4.2,1.1-6.2,1.1l0,0C4776.6,1487.3,4769.7,1482.8,4767,1475.5z"/>
	<path class="st2" d="M2399,1395.7c-9-4.2-12.9-14.9-8.7-23.9l0,0c4.2-9,14.9-12.9,23.9-8.7l0,0c9,4.2,12.9,14.9,8.7,23.9l0,0
		c-3,6.5-9.5,10.4-16.3,10.4l0,0C2404.1,1397.4,2401.5,1396.8,2399,1395.7z"/>
	<path class="st2" d="M4722.6,1370.9c-4.3-9-0.5-19.7,8.4-24l0,0c9-4.3,19.7-0.5,24,8.4l0,0c4.3,9,0.5,19.7-8.4,24l0,0
		c-2.5,1.2-5.2,1.8-7.8,1.8l0,0C4732.2,1381.1,4725.7,1377.3,4722.6,1370.9z"/>
	<path class="st2" d="M2451.3,1292.9c-8.6-5.1-11.4-16.1-6.3-24.7l0,0c5.1-8.5,16.1-11.4,24.7-6.3l0,0c8.5,5.1,11.4,16.1,6.3,24.7
		l0,0c-3.4,5.7-9.4,8.8-15.5,8.8l0,0C2457.4,1295.4,2454.2,1294.6,2451.3,1292.9z"/>
	<path class="st2" d="M4668.7,1270.9c-5.1-8.5-2.4-19.6,6.1-24.7l0,0c8.5-5.1,19.6-2.4,24.7,6.2l0,0c5.1,8.5,2.4,19.6-6.2,24.7l0,0
		c-2.9,1.7-6.1,2.6-9.3,2.6l0,0C4678,1279.6,4672.1,1276.5,4668.7,1270.9z"/>
	<path class="st2" d="M2513.4,1195.7c-8-5.9-9.8-17.1-3.9-25.1l0,0c5.9-8,17.1-9.8,25.2-3.9l0,0c8,5.9,9.8,17.1,3.9,25.2l0,0
		c-3.5,4.8-9,7.4-14.5,7.4l0,0C2520.3,1199.1,2516.6,1198,2513.4,1195.7z"/>
	<path class="st2" d="M4605.6,1176.3L4605.6,1176.3c-5.9-8-4.2-19.3,3.8-25.2l0,0c8-5.9,19.3-4.2,25.2,3.8l0,0
		c5.9,8,4.2,19.3-3.8,25.2l0,0c-3.2,2.4-7,3.5-10.7,3.5l0,0C4614.6,1183.6,4609.2,1181.1,4605.6,1176.3z"/>
	<path class="st2" d="M2584.6,1104.9c-7.4-6.6-8.1-18-1.5-25.4l0,0c6.6-7.4,18-8.1,25.4-1.5l0,0c7.4,6.6,8.1,18,1.5,25.4l0,0
		c-3.6,4-8.5,6-13.4,6l0,0C2592.3,1109.4,2588,1107.9,2584.6,1104.9z"/>
	<path class="st2" d="M4533.9,1088.2c-6.6-7.4-6-18.8,1.4-25.4l0,0c7.4-6.6,18.8-6,25.4,1.4l0,0c6.6,7.4,6,18.8-1.4,25.4l0,0
		c-3.4,3.1-7.7,4.6-12,4.6l0,0C4542.4,1094.2,4537.5,1092.1,4533.9,1088.2z"/>
	<path class="st2" d="M2664.1,1021.3c-6.8-7.3-6.3-18.7,1-25.4l0,0c0,0,0,0,0,0l0,0c7.3-6.8,18.7-6.3,25.4,1l0,0
		c6.8,7.3,6.3,18.7-1,25.4l0,0c-3.5,3.2-7.9,4.8-12.2,4.8l0,0C2672.5,1027.1,2667.7,1025.2,2664.1,1021.3z"/>
	<path class="st2" d="M4454.3,1007.1c-7.3-6.8-7.7-18.2-1-25.4l0,0c6.8-7.3,18.1-7.7,25.4-1l0,0c7.3,6.8,7.7,18.2,1,25.4l0,0
		c-3.5,3.8-8.4,5.8-13.2,5.8l0,0C4462.1,1011.9,4457.7,1010.3,4454.3,1007.1z"/>
	<path class="st2" d="M2751.2,945.7c-6-7.9-4.6-19.2,3.3-25.2l0,0c7.9-6,19.2-4.6,25.2,3.3l0,0c6,7.9,4.5,19.2-3.3,25.2l0,0
		c-3.3,2.5-7.1,3.7-10.9,3.7l0,0C2760.1,952.8,2754.8,950.3,2751.2,945.7z"/>
	<path class="st2" d="M4367.4,933.7c-7.9-6.1-9.4-17.4-3.3-25.2l0,0c6.1-7.9,17.4-9.4,25.2-3.3l0,0l0,0l0,0
		c7.9,6.1,9.4,17.4,3.3,25.2l0,0c-3.5,4.6-8.9,7-14.3,7l0,0C4374.5,937.4,4370.7,936.2,4367.4,933.7z"/>
	<path class="st2" d="M2845,878.4c-5.3-8.4-2.8-19.5,5.6-24.8l0,0c8.4-5.3,19.5-2.8,24.8,5.6l0,0c5.3,8.4,2.8,19.5-5.6,24.8h0
		c-3,1.9-6.3,2.8-9.6,2.8l0,0C2854.2,886.8,2848.4,883.9,2845,878.4z"/>
	<path class="st2" d="M4274.2,868.6c-8.4-5.3-10.9-16.4-5.6-24.8l0,0c5.3-8.4,16.4-10.9,24.8-5.6l0,0c0,0,0,0,0,0l0,0
		c8.4,5.3,10.9,16.4,5.6,24.8l0,0c-3.4,5.4-9.3,8.4-15.2,8.4l0,0C4280.5,871.4,4277.1,870.5,4274.2,868.6z"/>
	<path class="st2" d="M2944.3,819.9c-4.5-8.8-1.1-19.7,7.8-24.2l0,0c8.8-4.5,19.7-1.1,24.2,7.8l0,0c4.5,8.8,1.1,19.7-7.8,24.2l0,0
		c-2.6,1.4-5.5,2-8.2,2l0,0C2953.8,829.7,2947.5,826.1,2944.3,819.9z"/>
	<path class="st2" d="M4175.4,812.3L4175.4,812.3c-8.8-4.5-12.3-15.4-7.8-24.2l0,0c4.5-8.9,15.4-12.4,24.2-7.8l0,0c0,0,0,0,0,0l0,0
		c8.8,4.5,12.3,15.4,7.8,24.2l0,0c-3.2,6.2-9.5,9.8-16,9.8l0,0C4180.8,814.3,4178,813.6,4175.4,812.3z"/>
	<path class="st2" d="M3048.5,770.2c-3.8-9.2,0.6-19.7,9.8-23.5l0,0c9.2-3.8,19.7,0.6,23.5,9.8l0,0c3.8,9.2-0.6,19.7-9.8,23.5l0,0
		c-2.2,0.9-4.5,1.3-6.8,1.3l0,0C3058,781.4,3051.3,777.2,3048.5,770.2z"/>
	<path class="st2" d="M4071.8,765.1L4071.8,765.1c-9.2-3.7-13.7-14.2-10-23.4l0,0c3.7-9.2,14.2-13.7,23.4-10l0,0
		c9.2,3.7,13.7,14.2,10,23.4l0,0c-2.8,7-9.6,11.3-16.7,11.3l0,0C4076.3,766.4,4074,766,4071.8,765.1z"/>
	<path class="st2" d="M3156.5,729.6c-3-9.5,2.3-19.6,11.8-22.6l0,0c0,0,0,0,0,0l0,0c9.5-3,19.6,2.3,22.6,11.8l0,0
		c3,9.5-2.3,19.6-11.8,22.6l0,0c-1.8,0.6-3.6,0.8-5.4,0.8l0,0C3166,742.2,3158.9,737.3,3156.5,729.6z"/>
	<path class="st2" d="M3964.5,727.5L3964.5,727.5c-9.5-2.9-14.9-12.9-12.1-22.4l0,0c2.8-9.5,12.9-14.9,22.4-12.1l0,0l0,0l0,0
		c9.5,2.9,14.9,12.9,12.1,22.4l0,0c-2.3,7.8-9.5,12.8-17.2,12.8l0,0C3968,728.3,3966.2,728.1,3964.5,727.5z"/>
	<path class="st2" d="M3267.5,698.1c-2.2-9.7,3.9-19.3,13.6-21.5l0,0l0,0l0,0c9.7-2.2,19.3,3.9,21.5,13.6l0,0
		c2.2,9.7-3.9,19.3-13.6,21.5l0,0c-1.3,0.3-2.7,0.5-4,0.5l0,0C3276.8,712.1,3269.4,706.4,3267.5,698.1z"/>
	<path class="st2" d="M3854.2,699.9c-9.7-2-16-11.5-14.1-21.2l0,0c2-9.8,11.5-16,21.2-14.1l0,0c9.7,2,16,11.5,14.1,21.2l0,0
		c-1.7,8.5-9.2,14.4-17.6,14.4l0,0C3856.6,700.2,3855.4,700.1,3854.2,699.9z"/>
	<path class="st2" d="M3380.6,675.6c-1.4-9.8,5.4-19,15.2-20.4l0,0c9.8-1.4,19,5.4,20.4,15.2l0,0c1.4,9.8-5.4,19-15.2,20.4l0,0
		c-0.9,0.1-1.8,0.2-2.6,0.2l0,0C3389.6,691,3381.9,684.6,3380.6,675.6z"/>
	<path class="st2" d="M3741.8,682.5c-9.9-1.1-17-9.9-16-19.8l0,0c1.1-9.9,9.9-17,19.8-16l0,0c9.9,1.1,17,9.9,16,19.8l0,0
		c-1,9.2-8.8,16.1-17.9,16.1l0,0C3743.1,682.6,3742.4,682.6,3741.8,682.5z"/>
	<path class="st2" d="M3626.5,675.6c-9.9-1.1-17-9.9-16-19.8l0,0c1.1-9.9,9.9-17,19.8-16l0,0c9.9,1.1,17,9.9,16,19.8l0,0
		c-1,9.2-8.8,16.1-17.9,16.1l0,0C3627.8,675.7,3627.2,675.7,3626.5,675.6z"/>
	<path class="st2" d="M3495.2,662.1c-0.7-9.9,6.9-18.5,16.8-19.1l0,0c9.9-0.7,18.5,6.9,19.2,16.8l0,0c0.7,9.9-6.8,18.5-16.8,19.1
		l0,0c-0.4,0-0.8,0-1.2,0l0,0C3503.8,678.9,3495.9,671.6,3495.2,662.1z"/>
	<path class="st2" d="M3612.2,783.7c-9.9-0.1-17.9-8.3-17.8-18.2l0,0c0.1-9.9,8.3-17.9,18.2-17.8l0,0c9.9,0.1,17.9,8.3,17.8,18.2
		l0,0c-0.1,9.9-8.2,17.8-18,17.8l0,0C3612.3,783.7,3612.2,783.7,3612.2,783.7z"/>
	<path class="st2" d="M3612.2,891.7c-9.9-0.1-17.9-8.3-17.8-18.2l0,0c0.1-9.9,8.3-17.9,18.2-17.8l0,0c9.9,0.1,17.9,8.3,17.8,18.2
		l0,0c-0.1,9.9-8.2,17.8-18,17.8l0,0C3612.3,891.7,3612.2,891.7,3612.2,891.7z"/>
	<path class="st2" d="M3612.2,999.7c-9.9-0.1-17.9-8.3-17.8-18.2l0,0c0.1-9.9,8.3-17.9,18.2-17.8l0,0c9.9,0.1,17.9,8.3,17.8,18.2
		l0,0c-0.1,9.9-8.2,17.8-18,17.8l0,0C3612.3,999.7,3612.2,999.7,3612.2,999.7z"/>
	<path class="st2" d="M3612.2,1107.7c-9.9-0.1-17.9-8.3-17.8-18.2l0,0c0.1-9.9,8.3-17.9,18.2-17.8l0,0c9.9,0.1,17.9,8.3,17.8,18.2
		l0,0c-0.1,9.9-8.2,17.8-18,17.8l0,0C3612.3,1107.7,3612.2,1107.7,3612.2,1107.7z"/>
	<path class="st2" d="M3612.2,1215.7c-9.9-0.1-17.9-8.3-17.8-18.2l0,0c0.1-9.9,8.3-17.9,18.2-17.8l0,0c9.9,0.1,17.9,8.3,17.8,18.2
		l0,0c-0.1,9.9-8.2,17.8-18,17.8l0,0C3612.3,1215.7,3612.2,1215.7,3612.2,1215.7z"/>
	<path class="st2" d="M3612.2,1323.7c-9.9-0.1-17.9-8.3-17.8-18.2l0,0c0.1-9.9,8.3-17.9,18.2-17.8l0,0c9.9,0.1,17.9,8.3,17.8,18.2
		l0,0c-0.1,9.9-8.2,17.8-18,17.8l0,0C3612.3,1323.7,3612.2,1323.7,3612.2,1323.7z"/>
	<path class="st2" d="M3612.2,1431.7c-9.9-0.1-17.9-8.3-17.8-18.2l0,0c0.1-9.9,8.3-17.9,18.2-17.8l0,0c9.9,0.1,17.9,8.3,17.8,18.2
		l0,0c-0.1,9.9-8.2,17.8-18,17.8l0,0C3612.3,1431.7,3612.2,1431.7,3612.2,1431.7z"/>
	<path class="st2" d="M2734.5,1148.6c-6.8,7.3-18.2,7.7-25.4,0.9l0,0c-7.3-6.8-7.7-18.2-1-25.4l0,0c6.8-7.3,18.2-7.7,25.4-0.9l0,0
		c7.2,6.7,7.7,18,1.1,25.3l0,0C2734.6,1148.5,2734.6,1148.6,2734.5,1148.6z"/>
	<path class="st2" d="M2814.6,1221.1c-6.8,7.3-18.2,7.7-25.4,0.9l0,0c-7.3-6.8-7.7-18.2-1-25.4l0,0c6.8-7.3,18.2-7.7,25.4-0.9l0,0
		c7.2,6.7,7.7,18,1.1,25.3l0,0C2814.7,1221,2814.7,1221,2814.6,1221.1z"/>
	<path class="st2" d="M2894.7,1293.6c-6.8,7.3-18.2,7.7-25.4,0.9l0,0c-7.3-6.8-7.7-18.2-1-25.4l0,0c6.8-7.3,18.2-7.7,25.4-0.9l0,0
		c7.2,6.7,7.7,18,1.1,25.3l0,0C2894.8,1293.5,2894.7,1293.5,2894.7,1293.6z"/>
	<path class="st2" d="M2974.7,1366.1c-6.8,7.3-18.2,7.7-25.4,0.9l0,0c-7.3-6.8-7.7-18.2-1-25.4l0,0c6.8-7.3,18.2-7.7,25.4-0.9l0,0
		c7.2,6.7,7.7,18,1.1,25.3l0,0C2974.8,1365.9,2974.8,1366,2974.7,1366.1z"/>
	<path class="st2" d="M3054.8,1438.5c-6.8,7.3-18.2,7.7-25.4,0.9l0,0c-7.3-6.8-7.7-18.2-1-25.4l0,0c6.8-7.3,18.2-7.7,25.4-0.9l0,0
		c7.2,6.7,7.7,18,1.1,25.3l0,0C3054.9,1438.4,3054.9,1438.5,3054.8,1438.5z"/>
	<path class="st2" d="M3134.9,1511c-6.8,7.3-18.2,7.7-25.4,0.9l0,0c-7.3-6.8-7.7-18.2-1-25.4l0,0c6.8-7.3,18.2-7.7,25.4-0.9l0,0
		c7.2,6.7,7.7,18,1.1,25.3l0,0C3135,1510.9,3134.9,1510.9,3134.9,1511z"/>
	<path class="st2" d="M3215,1583.5c-6.8,7.3-18.2,7.7-25.4,0.9l0,0c-7.3-6.8-7.7-18.2-1-25.4l0,0c6.8-7.3,18.2-7.7,25.4-0.9l0,0
		c7.2,6.7,7.7,18,1.1,25.3l0,0C3215.1,1583.4,3215,1583.4,3215,1583.5z"/>
	<path class="st2" d="M2427.2,1940.2c-0.1,9.9-8.3,17.9-18.2,17.8l0,0c-9.9-0.1-17.9-8.3-17.8-18.2l0,0c0.1-9.9,8.3-17.9,18.2-17.8
		l0,0c9.9,0.1,17.8,8.2,17.8,18l0,0C2427.2,1940.1,2427.2,1940.1,2427.2,1940.2z"/>
	<path class="st2" d="M2535.2,1940.2c-0.1,9.9-8.3,17.9-18.2,17.8l0,0c-9.9-0.1-17.9-8.3-17.8-18.2l0,0c0.1-9.9,8.3-17.9,18.2-17.8
		l0,0c9.9,0.1,17.8,8.2,17.8,18l0,0C2535.2,1940.1,2535.2,1940.1,2535.2,1940.2z"/>
	<path class="st2" d="M2643.2,1940.2c-0.1,9.9-8.3,17.9-18.2,17.8l0,0c-9.9-0.1-17.9-8.3-17.8-18.2l0,0c0.1-9.9,8.3-17.9,18.2-17.8
		l0,0c9.9,0.1,17.8,8.2,17.8,18l0,0C2643.2,1940.1,2643.2,1940.1,2643.2,1940.2z"/>
	<path class="st2" d="M2751.2,1940.2c-0.1,9.9-8.3,17.9-18.2,17.8l0,0c-9.9-0.1-17.9-8.3-17.8-18.2l0,0c0.1-9.9,8.3-17.9,18.2-17.8
		l0,0c9.9,0.1,17.8,8.2,17.8,18l0,0C2751.2,1940.1,2751.2,1940.1,2751.2,1940.2z"/>
	<path class="st2" d="M2859.2,1940.2c-0.1,9.9-8.3,17.9-18.2,17.8l0,0c-9.9-0.1-17.9-8.3-17.8-18.2l0,0c0.1-9.9,8.3-17.9,18.2-17.8
		l0,0c9.9,0.1,17.8,8.2,17.8,18l0,0C2859.2,1940.1,2859.2,1940.1,2859.2,1940.2z"/>
	<path class="st2" d="M2967.2,1940.2c-0.1,9.9-8.3,17.9-18.2,17.8l0,0c-9.9-0.1-17.9-8.3-17.8-18.2l0,0c0.1-9.9,8.3-17.9,18.2-17.8
		l0,0c9.9,0.1,17.8,8.2,17.8,18l0,0C2967.2,1940.1,2967.2,1940.1,2967.2,1940.2z"/>
	<path class="st2" d="M3075.2,1940.2c-0.1,9.9-8.3,17.9-18.2,17.8l0,0c-9.9-0.1-17.9-8.3-17.8-18.2l0,0c0.1-9.9,8.3-17.9,18.2-17.8
		l0,0c9.9,0.1,17.8,8.2,17.8,18l0,0C3075.2,1940.1,3075.2,1940.1,3075.2,1940.2z"/>
	<path class="st2" d="M2835.7,2809.4c7.4,6.6,8.1,18,1.5,25.4l0,0c-6.6,7.4-18,8.1-25.4,1.5l0,0c-7.4-6.6-8.1-18-1.5-25.4l0,0
		c6.6-7.4,17.8-8.1,25.2-1.6l0,0C2835.6,2809.3,2835.6,2809.3,2835.7,2809.4z"/>
	<path class="st2" d="M2906.5,2727.8c7.4,6.6,8.1,18,1.5,25.4l0,0c-6.6,7.4-18,8.1-25.4,1.5l0,0c-7.4-6.6-8.1-18-1.5-25.4l0,0
		c6.6-7.4,17.8-8.1,25.2-1.6l0,0C2906.4,2727.7,2906.5,2727.8,2906.5,2727.8z"/>
	<path class="st2" d="M2977.4,2646.3c7.4,6.6,8.1,18,1.5,25.4l0,0c-6.6,7.4-18,8.1-25.4,1.5l0,0c-7.4-6.6-8.1-18-1.5-25.4l0,0
		c6.6-7.4,17.8-8.1,25.2-1.6l0,0C2977.3,2646.2,2977.3,2646.3,2977.4,2646.3z"/>
	<path class="st2" d="M3048.2,2564.8c7.4,6.6,8.1,18,1.5,25.4l0,0c-6.6,7.4-18,8.1-25.4,1.5l0,0c-7.4-6.6-8.1-18-1.5-25.4l0,0
		c6.6-7.4,17.8-8.1,25.2-1.6l0,0C3048.1,2564.7,3048.2,2564.7,3048.2,2564.8z"/>
	<path class="st2" d="M3119.1,2483.3c7.4,6.6,8.1,18,1.5,25.4l0,0c-6.6,7.4-18,8.1-25.4,1.5l0,0c-7.4-6.6-8.1-18-1.5-25.4l0,0
		c6.6-7.4,17.8-8.1,25.2-1.6l0,0C3118.9,2483.2,3119,2483.2,3119.1,2483.3z"/>
	<path class="st2" d="M3189.9,2401.8c7.4,6.6,8.1,18,1.5,25.4l0,0c-6.6,7.4-18,8.1-25.4,1.5l0,0c-7.4-6.6-8.1-18-1.5-25.4l0,0
		c6.6-7.4,17.8-8.1,25.2-1.6l0,0C3189.8,2401.7,3189.8,2401.7,3189.9,2401.8z"/>
	<path class="st2" d="M3260.7,2320.2c7.4,6.6,8.1,18,1.5,25.4l0,0c-6.6,7.4-18,8.1-25.4,1.5l0,0c-7.4-6.6-8.1-18-1.5-25.4l0,0
		c6.6-7.4,17.8-8.1,25.2-1.6l0,0C3260.6,2320.1,3260.7,2320.2,3260.7,2320.2z"/>
	<path class="st2" d="M3614.9,3088.3c9.9,0.1,17.9,8.3,17.8,18.2l0,0c-0.1,9.9-8.3,17.9-18.2,17.8l0,0c-9.9-0.1-17.9-8.3-17.8-18.2
		l0,0c0.1-9.9,8.2-17.8,18-17.8l0,0C3614.8,3088.3,3614.9,3088.3,3614.9,3088.3z"/>
	<path class="st2" d="M3614.9,2980.3c9.9,0.1,17.9,8.3,17.8,18.2l0,0c-0.1,9.9-8.3,17.9-18.2,17.8l0,0c-9.9-0.1-17.9-8.3-17.8-18.2
		l0,0c0.1-9.9,8.2-17.8,18-17.8l0,0C3614.8,2980.3,3614.9,2980.3,3614.9,2980.3z"/>
	<path class="st2" d="M3614.9,2872.3c9.9,0.1,17.9,8.3,17.8,18.2l0,0c-0.1,9.9-8.3,17.9-18.2,17.8l0,0c-9.9-0.1-17.9-8.3-17.8-18.2
		l0,0c0.1-9.9,8.2-17.8,18-17.8l0,0C3614.8,2872.3,3614.9,2872.3,3614.9,2872.3z"/>
	<path class="st2" d="M3614.9,2764.3c9.9,0.1,17.9,8.3,17.8,18.2l0,0c-0.1,9.9-8.3,17.9-18.2,17.8l0,0c-9.9-0.1-17.9-8.3-17.8-18.2
		l0,0c0.1-9.9,8.2-17.8,18-17.8l0,0C3614.8,2764.3,3614.9,2764.3,3614.9,2764.3z"/>
	<path class="st2" d="M3614.9,2656.3c9.9,0.1,17.9,8.3,17.8,18.2l0,0c-0.1,9.9-8.3,17.9-18.2,17.8l0,0c-9.9-0.1-17.9-8.3-17.8-18.2
		l0,0c0.1-9.9,8.2-17.8,18-17.8l0,0C3614.8,2656.3,3614.9,2656.3,3614.9,2656.3z"/>
	<path class="st2" d="M3614.9,2548.3c9.9,0.1,17.9,8.3,17.8,18.2l0,0c-0.1,9.9-8.3,17.9-18.2,17.8l0,0c-9.9-0.1-17.9-8.3-17.8-18.2
		l0,0c0.1-9.9,8.2-17.8,18-17.8l0,0C3614.8,2548.3,3614.9,2548.3,3614.9,2548.3z"/>
	<path class="st2" d="M3614.9,2440.3c9.9,0.1,17.9,8.3,17.8,18.2l0,0c-0.1,9.9-8.3,17.9-18.2,17.8l0,0c-9.9-0.1-17.9-8.3-17.8-18.2
		l0,0c0.1-9.9,8.2-17.8,18-17.8l0,0C3614.8,2440.3,3614.9,2440.3,3614.9,2440.3z"/>
	<path class="st2" d="M4746,1937.4c0.1-9.9,8.3-17.9,18.2-17.8l0,0c9.9,0.1,17.9,8.3,17.8,18.2l0,0c-0.1,9.9-8.3,17.9-18.2,17.8l0,0
		c-9.9-0.1-17.8-8.2-17.8-18l0,0C4746,1937.6,4746,1937.5,4746,1937.4z"/>
	<path class="st2" d="M4628.9,1937.4c0.1-9.9,8.3-17.9,18.2-17.8l0,0c9.9,0.1,17.9,8.3,17.8,18.2l0,0c-0.1,9.9-8.3,17.9-18.2,17.8
		l0,0c-9.9-0.1-17.8-8.2-17.8-18l0,0C4628.9,1937.6,4628.9,1937.5,4628.9,1937.4z"/>
	<path class="st2" d="M4511.8,1937.4c0.1-9.9,8.3-17.9,18.2-17.8l0,0c9.9,0.1,17.9,8.3,17.8,18.2l0,0c-0.1,9.9-8.3,17.9-18.2,17.8
		l0,0c-9.9-0.1-17.8-8.2-17.8-18l0,0C4511.8,1937.6,4511.8,1937.5,4511.8,1937.4z"/>
	<path class="st2" d="M4394.6,1937.4c0.1-9.9,8.3-17.9,18.2-17.8l0,0c9.9,0.1,17.9,8.3,17.8,18.2l0,0c-0.1,9.9-8.3,17.9-18.2,17.8
		l0,0c-9.9-0.1-17.8-8.2-17.8-18l0,0C4394.6,1937.6,4394.6,1937.5,4394.6,1937.4z"/>
	<path class="st2" d="M4277.5,1937.4c0.1-9.9,8.3-17.9,18.2-17.8l0,0c9.9,0.1,17.9,8.3,17.8,18.2l0,0c-0.1,9.9-8.3,17.9-18.2,17.8
		l0,0c-9.9-0.1-17.8-8.2-17.8-18l0,0C4277.5,1937.6,4277.5,1937.5,4277.5,1937.4z"/>
	<path class="st2" d="M4160.4,1937.4c0.1-9.9,8.3-17.9,18.2-17.8l0,0c9.9,0.1,17.9,8.3,17.8,18.2l0,0c-0.1,9.9-8.3,17.9-18.2,17.8
		l0,0c-9.9-0.1-17.8-8.2-17.8-18l0,0C4160.4,1937.6,4160.4,1937.5,4160.4,1937.4z"/>
	<path class="st2" d="M4455.1,2684.6c6.7-7.3,18.1-7.9,25.4-1.2l0,0c7.3,6.7,7.9,18.1,1.2,25.4l0,0c-6.7,7.3-18.1,7.9-25.4,1.2l0,0
		c-7.3-6.6-7.9-17.9-1.3-25.3l0,0C4455,2684.7,4455.1,2684.7,4455.1,2684.6z"/>
	<path class="st2" d="M4367.6,2606.8c6.7-7.3,18.1-7.9,25.4-1.2l0,0c7.3,6.7,7.9,18.1,1.2,25.4l0,0c-6.7,7.3-18.1,7.9-25.4,1.2l0,0
		c-7.3-6.6-7.9-17.9-1.3-25.3l0,0C4367.5,2606.9,4367.5,2606.8,4367.6,2606.8z"/>
	<path class="st2" d="M4280.1,2528.9c6.7-7.3,18.1-7.9,25.4-1.2l0,0c7.3,6.7,7.9,18.1,1.2,25.4l0,0c-6.7,7.3-18.1,7.9-25.4,1.2l0,0
		c-7.3-6.6-7.9-17.9-1.3-25.3l0,0C4280,2529.1,4280,2529,4280.1,2528.9z"/>
	<path class="st2" d="M4192.5,2451.1c6.7-7.3,18.1-7.9,25.4-1.2l0,0c7.3,6.7,7.9,18.1,1.2,25.4l0,0c-6.7,7.3-18.1,7.9-25.4,1.2l0,0
		c-7.3-6.6-7.9-17.9-1.3-25.3l0,0C4192.4,2451.2,4192.5,2451.2,4192.5,2451.1z"/>
	<path class="st2" d="M4105,2373.3c6.7-7.3,18.1-7.9,25.4-1.2l0,0c7.3,6.7,7.9,18.1,1.2,25.4l0,0c-6.7,7.3-18.1,7.9-25.4,1.2l0,0
		c-7.3-6.6-7.9-17.9-1.3-25.3l0,0C4104.9,2373.4,4104.9,2373.3,4105,2373.3z"/>
	<path class="st2" d="M4017.5,2295.5c6.7-7.3,18.1-7.9,25.4-1.2l0,0c7.3,6.7,7.9,18.1,1.2,25.4l0,0c-6.7,7.3-18.1,7.9-25.4,1.2l0,0
		c-7.3-6.6-7.9-17.9-1.3-25.3l0,0C4017.4,2295.6,4017.4,2295.5,4017.5,2295.5z"/>
	<path class="st2" d="M4369.8,1081.4c-6.9-7.1-6.8-18.5,0.3-25.4l0,0c7.1-6.9,18.5-6.8,25.5,0.3l0,0c6.9,7.1,6.8,18.5-0.3,25.5l0,0
		c-7.1,6.9-18.3,6.8-25.3-0.2l0,0C4369.9,1081.5,4369.9,1081.4,4369.8,1081.4z"/>
	<path class="st2" d="M4290.1,1174.1c-6.9-7.1-6.8-18.5,0.3-25.4l0,0c7.1-6.9,18.5-6.8,25.5,0.3l0,0c6.9,7.1,6.8,18.5-0.3,25.5l0,0
		c-7.1,6.9-18.3,6.8-25.3-0.2l0,0C4290.2,1174.2,4290.2,1174.2,4290.1,1174.1z"/>
	<path class="st2" d="M4210.4,1266.9c-6.9-7.1-6.8-18.5,0.3-25.4l0,0c7.1-6.9,18.5-6.8,25.5,0.3l0,0c6.9,7.1,6.8,18.5-0.3,25.5l0,0
		c-7.1,6.9-18.3,6.8-25.3-0.2l0,0C4210.5,1267,4210.4,1267,4210.4,1266.9z"/>
	<path class="st2" d="M4130.6,1359.7c-6.9-7.1-6.8-18.5,0.3-25.4l0,0c7.1-6.9,18.5-6.8,25.5,0.3l0,0c6.9,7.1,6.8,18.5-0.3,25.5l0,0
		c-7.1,6.9-18.3,6.8-25.3-0.2l0,0C4130.7,1359.8,4130.7,1359.7,4130.6,1359.7z"/>
	<path class="st2" d="M4050.9,1452.5c-6.9-7.1-6.8-18.5,0.3-25.4l0,0c7.1-6.9,18.5-6.8,25.5,0.3l0,0c6.9,7.1,6.8,18.5-0.3,25.5l0,0
		c-7.1,6.9-18.3,6.8-25.3-0.2l0,0C4051,1452.6,4051,1452.5,4050.9,1452.5z"/>
	<path class="st2" d="M3971.2,1545.2c-6.9-7.1-6.8-18.5,0.3-25.4l0,0c7.1-6.9,18.5-6.8,25.5,0.3l0,0c6.9,7.1,6.8,18.5-0.3,25.5l0,0
		c-7.1,6.9-18.3,6.8-25.3-0.2l0,0C3971.3,1545.3,3971.2,1545.3,3971.2,1545.2z"/>
	<path class="st2" d="M3606.8,2382.9L3606.8,2382.9L3606.8,2382.9c-9.9-0.1-17.9-8.3-17.8-18.2l0,0c0.1-10,8.3-17.9,18.2-17.8l0,0
		c9.9,0.1,17.9,8.3,17.8,18.2l0,0c-0.1,9.9-8.2,17.8-18,17.8l0,0C3607,2382.9,3606.9,2382.9,3606.8,2382.9z"/>
	<path class="st2" d="M3704.6,2356.6c-2.2-9.7,3.9-19.3,13.6-21.5h0c9.7-2.2,19.3,3.9,21.5,13.6l0,0c2.2,9.7-3.9,19.3-13.6,21.5l0,0
		c-1.3,0.3-2.7,0.4-4,0.4l0,0C3713.9,2370.6,3706.5,2364.9,3704.6,2356.6z"/>
	<path class="st2" d="M3487.9,2367.5c-9.6-2.4-15.5-12.2-13.1-21.8l0,0c2.4-9.6,12.2-15.5,21.8-13.1l0,0
		c9.6,2.4,15.5,12.2,13.1,21.8l0,0c-2.1,8.2-9.4,13.6-17.5,13.6l0,0C3490.9,2368,3489.4,2367.9,3487.9,2367.5z"/>
	<path class="st2" d="M3815.4,2322.5c-4.3-9-0.5-19.7,8.5-24l0,0c9-4.3,19.7-0.5,24,8.5l0,0c4.3,9,0.5,19.7-8.5,24l0,0l0,0l0,0
		c-2.5,1.2-5.2,1.8-7.8,1.8l0,0C3824.9,2332.7,3818.5,2329,3815.4,2322.5z"/>
	<path class="st2" d="M3375.8,2324.3L3375.8,2324.3L3375.8,2324.3c-8.8-4.7-12.1-15.6-7.4-24.4l0,0c4.7-8.8,15.6-12.1,24.4-7.4l0,0
		c8.8,4.7,12.1,15.6,7.4,24.4l0,0c-3.2,6.1-9.5,9.5-15.9,9.5l0,0C3381.4,2326.4,3378.5,2325.7,3375.8,2324.3z"/>
	<path class="st2" d="M3915.4,2264c-6.4-7.6-5.3-19,2.3-25.4l0,0c7.6-6.4,19-5.3,25.3,2.3l0,0c6.4,7.6,5.3,19-2.3,25.4l0,0
		c-3.4,2.8-7.4,4.2-11.5,4.2l0,0C3924,2270.5,3918.9,2268.3,3915.4,2264z"/>
	<path class="st2" d="M3277.9,2254.3c-7.2-6.8-7.6-18.2-0.8-25.4l0,0c6.8-7.3,18.2-7.6,25.4-0.8l0,0c7.3,6.8,7.6,18.2,0.8,25.4l0,0
		c-3.5,3.8-8.3,5.7-13.1,5.7l0,0C3285.8,2259.2,3281.4,2257.5,3277.9,2254.3z"/>
	<path class="st2" d="M3996.9,2182c-8.2-5.6-10.4-16.8-4.9-25l0,0c5.6-8.2,16.8-10.4,25-4.8l0,0c8.2,5.6,10.4,16.8,4.9,25l0,0l0,0
		l0,0c-3.5,5.2-9.2,7.9-14.9,7.9l0,0C4003.5,2185,4000,2184,3996.9,2182z"/>
	<path class="st2" d="M3202.2,2160.5L3202.2,2160.5L3202.2,2160.5c-5.1-8.5-2.3-19.6,6.2-24.7l0,0c8.5-5.1,19.6-2.3,24.7,6.2l0,0
		c5.1,8.5,2.3,19.6-6.2,24.7l0,0c-2.9,1.7-6.1,2.5-9.2,2.5l0,0C3211.5,2169.3,3205.5,2166.1,3202.2,2160.5z"/>
	<path class="st2" d="M4051.3,2080c-9.5-2.9-14.9-12.9-12.1-22.4l0,0c2.9-9.5,12.9-14.9,22.4-12l0,0c9.5,2.9,14.9,12.9,12,22.4l0,0
		c-2.3,7.8-9.5,12.8-17.2,12.8l0,0C4054.8,2080.7,4053,2080.5,4051.3,2080z"/>
	<path class="st2" d="M3155.9,2049c-2.5-9.6,3.4-19.4,13-21.9l0,0c9.6-2.5,19.4,3.4,21.9,13l0,0c2.5,9.6-3.4,19.4-13,21.9l0,0
		c-1.5,0.4-3,0.6-4.5,0.6l0,0C3165.3,2062.5,3157.9,2057.1,3155.9,2049z"/>
	<path class="st2" d="M4073.5,1966.5c-9.9-0.2-17.8-8.4-17.7-18.3l0,0c0.2-9.9,8.4-17.9,18.3-17.7l0,0c9.9,0.2,17.8,8.4,17.7,18.3
		l0,0c-0.2,9.8-8.2,17.7-18,17.7l0,0C4073.7,1966.5,4073.6,1966.5,4073.5,1966.5z"/>
	<path class="st2" d="M3142.5,1940.4C3142.5,1940.4,3142.5,1940.4,3142.5,1940.4L3142.5,1940.4c0-10,8.1-18,18-18l0,0
		c9.9,0,18,8,18,18l0,0c0,9.9-8.1,18-18,18l0,0C3150.5,1958.4,3142.5,1950.3,3142.5,1940.4z"/>
	<path class="st2" d="M4041.5,1838.8L4041.5,1838.8c-2.7-9.6,2.8-19.5,12.4-22.2l0,0c9.6-2.7,19.5,2.8,22.2,12.4l0,0l0,0l0,0
		c2.7,9.6-2.8,19.5-12.4,22.2l0,0c-1.6,0.5-3.3,0.7-4.9,0.7l0,0C4050.9,1851.9,4043.7,1846.8,4041.5,1838.8z"/>
	<path class="st2" d="M3173.1,1843.5c-9.5-3-14.7-13.1-11.7-22.6l0,0c3-9.5,13.1-14.7,22.6-11.7l0,0c9.5,3,14.7,13.1,11.7,22.6l0,0
		c-2.4,7.7-9.5,12.6-17.2,12.6l0,0C3176.7,1844.3,3174.9,1844,3173.1,1843.5z"/>
	<path class="st2" d="M3996.8,1737.5c-5.2-8.5-2.6-19.6,5.9-24.8l0,0c8.5-5.2,19.5-2.6,24.8,5.9l0,0c5.2,8.5,2.6,19.6-5.9,24.8l0,0
		c-2.9,1.8-6.2,2.7-9.4,2.7l0,0C4006.1,1746.1,4000.2,1743.1,3996.8,1737.5z"/>
	<path class="st2" d="M3218.5,1737c-8.3-5.5-10.6-16.6-5.2-24.9l0,0l0,0l0,0c5.4-8.3,16.6-10.6,24.9-5.2l0,0
		c8.3,5.4,10.6,16.6,5.2,24.9l0,0c-3.5,5.3-9.2,8.1-15.1,8.1l0,0C3224.9,1740,3221.5,1739,3218.5,1737z"/>
	<path class="st2" d="M3926.7,1651.7L3926.7,1651.7c-7.2-6.8-7.6-18.2-0.8-25.4l0,0c6.8-7.2,18.2-7.6,25.4-0.8l0,0
		c7.3,6.8,7.6,18.2,0.8,25.4l0,0c-3.5,3.8-8.3,5.7-13.1,5.7l0,0C3934.6,1656.5,3930.1,1654.9,3926.7,1651.7z"/>
	<path class="st2" d="M3290.3,1646.2c-6.7-7.4-6.1-18.8,1.3-25.4l0,0c7.4-6.7,18.8-6.1,25.4,1.3l0,0c6.7,7.4,6.1,18.8-1.3,25.4l0,0
		c-3.4,3.1-7.8,4.6-12.1,4.6l0,0C3298.7,1652.1,3293.8,1650.1,3290.3,1646.2z"/>
	<path class="st2" d="M3836.5,1587.1L3836.5,1587.1c-8.8-4.7-12.1-15.6-7.4-24.3l0,0c4.7-8.8,15.6-12.1,24.4-7.4l0,0l0,0l0,0
		c8.8,4.7,12.1,15.6,7.4,24.4l0,0c-3.2,6.1-9.5,9.5-15.9,9.5l0,0C3842.1,1589.3,3839.2,1588.6,3836.5,1587.1z"/>
	<path class="st2" d="M3382.6,1576.4c-4.6-8.8-1.2-19.7,7.6-24.3l0,0l0,0l0,0c8.8-4.6,19.7-1.2,24.3,7.6l0,0
		c4.6,8.8,1.2,19.7-7.6,24.3l0,0c-2.7,1.4-5.5,2-8.3,2l0,0C3392.1,1586,3385.8,1582.5,3382.6,1576.4z"/>
	<path class="st2" d="M3732.6,1547.7c-9.7-2.4-15.6-12.1-13.2-21.8l0,0c2.4-9.7,12.1-15.6,21.8-13.2l0,0
		c9.7,2.4,15.6,12.1,13.2,21.8l0,0c-2,8.2-9.4,13.7-17.5,13.7l0,0C3735.4,1548.2,3734,1548,3732.6,1547.7z"/>
	<path class="st2" d="M3489.5,1531.9c-2.2-9.7,3.8-19.4,13.5-21.6l0,0c9.7-2.2,19.4,3.8,21.6,13.5l0,0c2.2,9.7-3.8,19.4-13.5,21.6
		l0,0c-1.4,0.3-2.7,0.5-4.1,0.5l0,0C3498.8,1545.9,3491.4,1540.3,3489.5,1531.9z"/>
	<path class="st2" d="M3621.8,1533.9c-9.9-0.2-17.9-8.3-17.7-18.3l0,0c0.1-9.9,8.3-17.9,18.3-17.7l0,0l0,0l0,0
		c9.9,0.2,17.9,8.3,17.7,18.3l0,0c-0.2,9.9-8.2,17.7-18,17.7l0,0C3622,1533.9,3621.9,1533.9,3621.8,1533.9z"/>
	<path class="st2" d="M3567.7,2189.8c-9.8-1.9-16.1-11.4-14.2-21.1l0,0c1.9-9.8,11.4-16.1,21.1-14.2l0,0
		c9.8,1.9,16.1,11.4,14.2,21.2l0,0c-1.7,8.6-9.2,14.5-17.6,14.5l0,0C3570,2190.1,3568.9,2190,3567.7,2189.8z"/>
	<path class="st2" d="M3668.6,2171.7c-2.9-9.5,2.5-19.6,12-22.5l0,0c9.5-2.9,19.6,2.5,22.5,12l0,0c2.9,9.5-2.5,19.6-12,22.4l0,0
		c-1.8,0.5-3.5,0.8-5.2,0.8l0,0C3678.1,2184.5,3671,2179.5,3668.6,2171.7z"/>
	<path class="st2" d="M3456,2137c-7.7-6.3-8.8-17.7-2.5-25.3l0,0c6.3-7.7,17.6-8.8,25.3-2.5l0,0c7.7,6.3,8.8,17.7,2.5,25.3l0,0
		c-3.6,4.3-8.7,6.6-13.9,6.6l0,0C3463.4,2141,3459.3,2139.7,3456,2137z"/>
	<path class="st2" d="M3771.5,2120.1c-7-7-7-18.4,0-25.5l0,0c7-7,18.4-7,25.5,0l0,0c7,7,7,18.4,0,25.5l0,0
		c-3.5,3.5-8.1,5.3-12.7,5.3l0,0C3779.7,2125.4,3775.1,2123.6,3771.5,2120.1z"/>
	<path class="st2" d="M3382.3,2037.8c-3.8-9.2,0.5-19.7,9.7-23.5l0,0c9.2-3.8,19.7,0.5,23.5,9.7l0,0c3.8,9.2-0.5,19.7-9.7,23.5l0,0
		c-2.2,0.9-4.6,1.4-6.9,1.4l0,0C3391.9,2048.9,3385.2,2044.7,3382.3,2037.8z"/>
	<path class="st2" d="M3838.1,2026.1c-9.5-2.9-14.9-12.9-12-22.5l0,0c2.9-9.5,12.9-14.9,22.4-12l0,0c9.5,2.9,14.9,12.9,12,22.4l0,0
		c-2.4,7.8-9.5,12.8-17.2,12.8l0,0C3841.6,2026.9,3839.8,2026.7,3838.1,2026.1z"/>
	<path class="st2" d="M3362.9,1940.4c0-9.9,8-18,18-18l0,0c9.9,0,18,8,18,18l0,0c0,9.9-8.1,18-18,18l0,0
		C3371,1958.4,3362.9,1950.3,3362.9,1940.4z"/>
	<path class="st2" d="M3831.3,1897.7c-1.9-9.8,4.4-19.2,14.2-21.1l0,0c9.8-1.9,19.2,4.4,21.2,14.2l0,0c1.9,9.8-4.4,19.2-14.2,21.1
		l0,0c-1.2,0.2-2.3,0.4-3.5,0.4l0,0C3840.5,1912.2,3833,1906.3,3831.3,1897.7z"/>
	<path class="st2" d="M3400.3,1844.9c-8.8-4.7-12.1-15.6-7.4-24.4l0,0c0,0,0,0,0,0l0,0c4.7-8.8,15.6-12.1,24.4-7.4l0,0
		c8.8,4.7,12.1,15.6,7.4,24.4l0,0c-3.2,6.1-9.5,9.5-15.9,9.5l0,0C3405.9,1847,3403,1846.3,3400.3,1844.9z"/>
	<path class="st2" d="M3785.9,1801.9L3785.9,1801.9c-6.3-7.7-5.2-19,2.5-25.3l0,0c7.7-6.3,19-5.2,25.3,2.5l0,0l0,0l0,0
		c6.3,7.7,5.2,19-2.5,25.3l0,0c-3.3,2.8-7.4,4.1-11.4,4.1l0,0C3794.6,1808.5,3789.4,1806.2,3785.9,1801.9z"/>
	<path class="st2" d="M3471,1754c-5.5-8.3-3.3-19.4,4.9-25l0,0l0,0l0,0c8.3-5.5,19.4-3.3,25,4.9l0,0c5.5,8.3,3.3,19.4-5,25l0,0
		c-3.1,2.1-6.5,3-10,3l0,0C3480.1,1761.9,3474.4,1759.1,3471,1754z"/>
	<path class="st2" d="M3700.7,1738.7L3700.7,1738.7c-9.2-3.8-13.5-14.3-9.7-23.5l0,0c3.8-9.2,14.3-13.5,23.5-9.7l0,0l0,0l0,0
		c9.2,3.8,13.5,14.3,9.7,23.5l0,0c-2.9,6.9-9.6,11.1-16.6,11.1l0,0C3705.3,1740,3702.9,1739.6,3700.7,1738.7z"/>
	<path class="st2" d="M3576.1,1707c-1-9.9,6.3-18.7,16.2-19.7l0,0c0,0,0,0,0,0l0,0c9.9-1,18.7,6.3,19.7,16.2l0,0
		c1,9.9-6.3,18.7-16.2,19.7l0,0c-0.6,0.1-1.2,0.1-1.8,0.1l0,0C3584.8,1723.3,3577,1716.3,3576.1,1707z"/>
</g>
<g id="Wiring">
	<polyline class="st3" points="2073.7,2273 1981.2,2344.9 1888.7,2416.9 1796.2,2488.8 1703.7,2560.7 1611.2,2632.7 1518.7,2704.6 
		1426.2,2776.5 1333.7,2848.5 1241.2,2920.4 1148.7,2992.4 1056.2,3064.3 963.7,3136.2 871.2,3208.2 765.9,3241.1 648.7,3241.1 
		531.6,3241.1 414.4,3241.1 297.2,3241.1 180,3241.1 219.8,3127.7 259.6,3013.9 299.4,2900 339.2,2786.1 379,2672.2 418.8,2558.3 
		533.3,2554.9 647.2,2549.8 736.2,2477.8 825.2,2405.8 914.2,2333.7 1003.2,2261.7 1092.2,2189.5 1181.2,2117.6 1270.3,2045.6 
		1359.3,1973.5 1448.3,1901.5 1537.3,1829.4 1629.2,1757.4 1715.3,1685.4 1804.3,1613.3 1893.4,1541.3 1982.4,1469.3 2071.4,1395.7 
		2160.4,1325.2 2254.9,1110.3 2145.9,1121 2036.8,1131.8 1927.8,1142.5 1803.2,1095.6 1723,1159.3 1642.8,1095.6 1546.1,1025.3 
		1477,954.5 1428.2,868.4 1394.1,775.6 1300.7,826.5 1214.3,793.2 1165.7,708 1204.8,612.8 1149.9,531.4 1167.2,431 1112.3,346.4 
		1129.6,249.1 1074.7,168.9 1092,67.2 1110.8,158.2 1165.7,239.2 1148.4,340 1197,419.1 1186,521.9 1300.7,558.1 1379.7,677.7 
		1397.1,580.3 1438.1,490.4 1493.9,408.7 1560.6,335.7 1642.8,259.9 1642.8,352.8 1642.8,445.6 1642.8,538.5 1642.8,631.3 
		1642.8,724.2 1642.8,817 1642.8,909.9 1642.8,1002.7 1803.2,1002.7 1803.2,909.9 1803.2,817 1803.2,724.2 1803.2,631.3 
		1803.2,538.5 1803.2,445.6 1803.2,352.8 1803.2,259.9 1723,190.5 1919.3,241.1 2028.8,240.1 2138.4,239.2 2248,238.2 2357.5,237.3 
		2467.1,236.3 2576.7,235.4 2686.2,234.4 2795.8,233.5 2894.5,170.3 2952.6,170.3 2889.3,233.5 2889.3,348.3 2889.3,463.2 
		2889.3,578 3027.3,522.2 3027.3,425.9 3027.3,329.7 3027.3,233.5 3126.8,232.6 3236.4,231.6 3346,230.7 3455.5,229.7 3565.1,228.8 
		3674.7,227.8 3784.2,226.9 3893.8,225.9 4003.4,225 4112.9,224 4222.5,223 4332,222.1 4422.4,212.5 4422.4,302.5 4422.4,392.5 
		4422.4,482.5 4422.4,572.5 4422.4,662.5 4560.4,752.5 4560.4,662.5 4560.4,572.5 4560.4,482.5 4560.4,392.5 4560.4,302.5 
		4560.4,212.5 4459.8,130.6 4534.3,130.6 4653.7,212.5 4764.4,212.5 4872.9,212.5 4982.4,212.5 5092,212.5 5201.5,212.5 5313,212.5 
		5422.1,211.5 5531.2,212.5 5639.8,212.5 5749.4,211.5 5835.3,217.4 5909.8,136.6 5984.3,217.4 6089.5,217.4 6194.8,204.5 
		6300.1,191.7 6405.5,178.8 6510.8,166 6616.1,153.1 6721.4,140.2 6721.4,279.7 6616.1,286.8 6510.8,294 6405.5,301.1 6300.1,308.3 
		6194.8,315.4 6089.5,322.5 5984.3,322.5 5835.3,322.5 5835.3,427.7 5984.3,427.7 6089.5,427.7 6194.8,424.9 6300.1,422 
		6405.5,419.1 6510.8,416.3 6616.1,413.4 6721.4,410.6 6721.4,550 6616.1,547.2 6510.8,544.3 6405.5,541.4 6300.1,538.6 
		6194.8,535.7 6089.5,532.9 5984.3,532.9 5835.3,532.9 5835.3,638 5984.3,638 6089.5,638 6194.8,645.2 6300.1,652.3 6405.5,659.5 
		6510.8,666.6 6616.1,673.8 6721.4,680.9 6721.4,820.4 6616.1,807.5 6510.8,794.6 6405.5,781.8 6300.1,767.5 6194.8,756.1 
		6089.5,743.2 5984.3,743.2 5909.8,824 5835.3,743.2 5749.4,764.3 5639.8,774.5 5531.2,784.8 5422.1,796.3 5313,805.3 5204,815.6 
		5094.9,825.8 4985.8,836.1 4876.7,846.4 4767.6,856.6 4658.5,866.9 4533.3,865.3 4442.1,792.7 4344.9,728.2 4242.5,672.4 
		4135.8,625.7 4025.4,588.2 3912.3,560 3797.3,541.2 3681.2,531.5 3564.6,530.8 3448.3,538.8 3333,555.6 3219.2,581.1 3107.7,615.2 
		2999.3,657.7 2894.5,708.6 2793.9,767.4 2698.3,833.9 2608.2,907.9 2524.4,988.9 2447.4,1076.4 2378,1170.1 2316.6,1269.2 
		2263.9,1373.2 2220.3,1481.4 2186.2,1592.8 2161.8,1706.8 2147.2,1822.4 2142.4,1939.7 2148.4,2056.9 2166.4,2172.2 2193.7,2285.3 
		2232,2395.5 2279.9,2501.8 2336.5,2603.8 2401.4,2700.7 2473.9,2792.2 2553.3,2877.6 2639.1,2956.7 2730.7,3029 2827.5,3094.1 
		2929.1,3151.5 3034.7,3201 3143.7,3242.2 3255.6,3274.7 3369.8,3298.5 3485.4,3313.3 3601.8,3319.2 3718.2,3315 3833.7,3299.4 
		3947.3,3273 4058,3236.5 4165.3,3190.6 4268.4,3136.2 4367,3073.9 4460.6,3004.2 4548.7,2927.8 4630.9,2845 4706.7,2756.5 
		4775.6,2662.4 4837,2563.3 4890.3,2459.7 4934.6,2351.9 4969.3,2240.6 4993.4,2126.6 5006.2,2010.8 5007.4,1894.2 4999.3,1777.9 
		4982.5,1662.6 4956.7,1548.9 4921.9,1437.7 4878.1,1329.7 4825.5,1225.7 4764.4,1126.5 4695,1032.9 4617.8,945.6 4466.5,993.9 
		4382.7,1068.8 4303,1161.6 4223.3,1254.3 4143.5,1347.1 4063.8,1439.9 3984,1532.7 3939,1638.5 4012.1,1728.1 4058.8,1833.9 
		4073.8,1948.5 4056.5,2062.7 4178.4,1937.7 4295.5,1938.8 4412.6,1938.8 4529.8,1938.8 4646.9,1940 4765.9,1940 4866.2,1921 
		4801.9,1811 4845.1,1691.6 4764,1589.3 4783.9,1469.3 4684.1,1395.7 4684.1,1261.6 4565.3,1197.7 4547.8,1076.2 4620.1,1165.7 
		4738.9,1225.7 4738.9,1363.1 4842,1446.7 4819.1,1579.1 4903.9,1680.6 4860.1,1805.9 4925.3,1921 4863.1,2036.3 4849.4,2150.9 
		4825.3,2263.7 4790.9,2373.9 4746.7,2480.5 4693,2582.6 4630.9,2679.4 4559,2770.1 4468.4,2696.7 4380.9,2618.9 4293.4,2541.1 
		4205.8,2463.2 4118.3,2385.4 4030.8,2307.6 4007,2167 3929.2,2252.5 3831.6,2314.7 3722.2,2352.6 3607.1,2364.9 3492.3,2350 
		3614.7,2458.3 3614.7,2566.3 3614.7,2674.3 3614.7,2782.3 3614.7,2890.3 3614.7,2998.3 3614.7,3106.3 3647.2,3199.9 3749,3136.2 
		3876.2,3174 3969.9,3087.3 4096.3,3106.3 4174.6,2998 4299.9,2998.3 4356.4,2878.5 4479.8,2854 4393.2,2930.2 4333.9,3038.9 
		4200.7,3056.9 4114.4,3156 3987.9,3145.3 3885.9,3229.3 3762.3,3192.2 3647.2,3256.7 3531.9,3198 3417,3187.9 3303.1,3169.4 
		3191.1,3141.9 3081.8,3105.3 2976,3059.3 2874.8,3004 2779.1,2939.6 2823.7,2822.8 2894.6,2741.3 2965.4,2659.8 3036.2,2578.2 
		3107.1,2496.7 3177.9,2415.2 3248.8,2334.6 3384.3,2308.4 3290.2,2241.2 3217.6,2151.3 3173.3,2044.5 3160.5,1940.4 3178.5,1826.3 
		3057.2,1940.4 2949.2,1940.4 2841.2,1940.4 2733.2,1940.4 2625.2,1940.4 2517.2,1940.4 2409.2,1940.4 2287.3,1940.4 2344.7,2057.2 
		2309.5,2171.5 2386.7,2267.3 2368.7,2393.7 2469.7,2470.1 2469.7,2603.8 2581.3,2656.3 2608.1,2782.3 2689.9,2866.4 2567.4,2822.8 
		2534.5,2696.2 2419.4,2621.8 2414.3,2499.6 2310.2,2415.2 2333,2284 2250,2184.5 2292.2,2057.2 2215.6,1940.4 2292.2,1823.6 
		2305.3,1709.1 2329,1596.3 2362.7,1486 2406.6,1379.4 2460.5,1277.4 2524,1181.1 2596.5,1091.4 2721.3,1136.4 2801.4,1208.9 
		2881.5,1281.3 2961.6,1355.2 3041.6,1426.3 3121.7,1499.4 3201.8,1571.3 3228.3,1722 3303.6,1634.2 3398.9,1568 3507,1527.9 
		3594.4,1705.3 3485.9,1743.9 3408.8,1829 3380.9,1940 3398.9,2030.9 3467.4,2125.4 3571.2,2172.1 3685.8,2166.5 3784.3,2107.4 
		3843.3,2008.9 3848.9,1894.2 3799.8,1790.5 3707.6,1722 3845,1571.2 3736.8,1530.2 3622,1516.8 3613.5,1413.7 3613.5,1305.7 
		3613.5,1197.7 3613.5,1089.7 3613.5,981.7 3613.5,873.7 3613.5,767.4 3628.5,657.7 3513.2,712.1 3398.5,672.4 3297.8,742.2 
		3173.6,724.2 3089.7,810.7 2960.4,811.7 2889.3,916.8 2765.5,934.8 2677.3,1009.1 2730.6,886.8 2860.2,868.8 2932.1,758.1 
		3065.1,763.4 3149.1,664.6 3285,694.1 3385.5,606.2 3513.2,660.9 3630.4,588.2 3743.7,664.6 3857.7,682.2 3969.7,710.3 
		4078.6,748.4 4183.6,796.3 4283.8,853.4 4378.4,919.4 	"/>
	<g>
		<circle class="st4" cx="2073.7" cy="2273" r="29.1"/>
		<g>
			<path class="st5" d="M2013.3,2233.7c1,0.6,2.4,1.1,3.9,1.1c2.2,0,3.5-1.2,3.5-2.9c0-1.6-0.9-2.5-3.2-3.3c-2.7-1-4.4-2.4-4.4-4.8
				c0-2.6,2.2-4.6,5.4-4.6c1.7,0,3,0.4,3.7,0.8l-0.6,1.8c-0.5-0.3-1.7-0.8-3.2-0.8c-2.3,0-3.2,1.4-3.2,2.5c0,1.6,1,2.3,3.3,3.2
				c2.8,1.1,4.3,2.5,4.3,4.9c0,2.6-1.9,4.8-5.9,4.8c-1.6,0-3.4-0.5-4.3-1.1L2013.3,2233.7z"/>
			<path class="st5" d="M2029.1,2221.4h-5.1v-1.8h12.5v1.8h-5.1v15h-2.2V2221.4z"/>
			<path class="st5" d="M2039.2,2231.1l-1.7,5.3h-2.2l5.7-16.8h2.6l5.7,16.8h-2.3l-1.8-5.3H2039.2z M2044.7,2229.4l-1.6-4.8
				c-0.4-1.1-0.6-2.1-0.9-3.1h0c-0.2,1-0.5,2-0.9,3l-1.6,4.9H2044.7z"/>
			<path class="st5" d="M2051.8,2219.7c1.1-0.2,2.7-0.3,4.2-0.3c2.3,0,3.8,0.4,4.9,1.4c0.8,0.8,1.3,1.9,1.3,3.2
				c0,2.2-1.4,3.7-3.2,4.3v0.1c1.3,0.4,2.1,1.6,2.5,3.4c0.5,2.3,0.9,4,1.3,4.6h-2.2c-0.3-0.5-0.6-1.9-1.1-4
				c-0.5-2.3-1.4-3.2-3.4-3.3h-2v7.3h-2.2V2219.7z M2053.9,2227.4h2.2c2.3,0,3.8-1.3,3.8-3.2c0-2.2-1.6-3.1-3.9-3.1
				c-1,0-1.8,0.1-2.1,0.2V2227.4z"/>
			<path class="st5" d="M2068.6,2221.4h-5.1v-1.8h12.5v1.8h-5.1v15h-2.2V2221.4z"/>
			<path class="st5" d="M2085.3,2219.5v7h8.1v-7h2.2v16.8h-2.2v-7.9h-8.1v7.9h-2.2v-16.8H2085.3z"/>
			<path class="st5" d="M2108.2,2228.5h-6.5v6.1h7.3v1.8h-9.5v-16.8h9.1v1.8h-6.9v5.3h6.5V2228.5z"/>
			<path class="st5" d="M2111.7,2219.7c1.1-0.2,2.7-0.3,4.2-0.3c2.3,0,3.8,0.4,4.9,1.4c0.9,0.8,1.3,1.9,1.3,3.2
				c0,2.2-1.4,3.7-3.2,4.3v0.1c1.3,0.4,2.1,1.6,2.5,3.4c0.5,2.3,0.9,4,1.3,4.6h-2.2c-0.3-0.5-0.6-1.9-1.1-4
				c-0.5-2.3-1.4-3.2-3.4-3.3h-2v7.3h-2.2V2219.7z M2113.9,2227.4h2.2c2.3,0,3.8-1.3,3.8-3.2c0-2.2-1.6-3.1-3.9-3.1
				c-1,0-1.8,0.1-2.1,0.2V2227.4z"/>
			<path class="st5" d="M2133.9,2228.5h-6.5v6.1h7.3v1.8h-9.5v-16.8h9.1v1.8h-6.9v5.3h6.5V2228.5z"/>
		</g>
	</g>
	<circle class="st6" cx="4378.4" cy="919.4" r="29.1"/>
	<g>
		<circle class="st7" cx="2795.8" cy="233.5" r="29.1"/>
		<g>
			<path class="st8" d="M2781.6,271.1L2781.6,271.1l-2.9,1.5l-0.4-1.7l3.5-1.9h1.9v16.2h-2.1V271.1z"/>
			<path class="st8" d="M2800.5,277c0,5.5-2,8.6-5.6,8.6c-3.2,0-5.3-3-5.4-8.3c0-5.4,2.3-8.4,5.6-8.4
				C2798.5,268.8,2800.5,271.8,2800.5,277z M2791.6,277.3c0,4.2,1.3,6.6,3.3,6.6c2.2,0,3.3-2.6,3.3-6.8c0-4-1-6.6-3.3-6.6
				C2793,270.5,2791.6,272.8,2791.6,277.3z"/>
			<path class="st8" d="M2813.3,277c0,5.5-2,8.6-5.6,8.6c-3.2,0-5.3-3-5.4-8.3c0-5.4,2.3-8.4,5.6-8.4
				C2811.3,268.8,2813.3,271.8,2813.3,277z M2804.5,277.3c0,4.2,1.3,6.6,3.3,6.6c2.2,0,3.3-2.6,3.3-6.8c0-4-1-6.6-3.3-6.6
				C2805.9,270.5,2804.5,272.8,2804.5,277.3z"/>
		</g>
	</g>
	<g>
		<circle class="st7" cx="6089.5" cy="743.2" r="29.1"/>
		<g>
			<path class="st8" d="M6071.3,704.8v-1.3l1.7-1.7c4.1-3.9,6-6,6-8.5c0-1.6-0.8-3.2-3.2-3.2c-1.5,0-2.7,0.7-3.4,1.4l-0.7-1.5
				c1.1-0.9,2.7-1.6,4.6-1.6c3.5,0,5,2.4,5,4.7c0,3-2.2,5.4-5.6,8.7l-1.3,1.2v0h7.3v1.8H6071.3z"/>
			<path class="st8" d="M6094.9,696.5c0,5.5-2,8.6-5.6,8.6c-3.2,0-5.3-3-5.4-8.3c0-5.4,2.3-8.4,5.6-8.4
				C6092.9,688.2,6094.9,691.3,6094.9,696.5z M6086.1,696.7c0,4.2,1.3,6.6,3.3,6.6c2.2,0,3.3-2.6,3.3-6.8c0-4-1-6.6-3.3-6.6
				C6087.5,689.9,6086.1,692.3,6086.1,696.7z"/>
			<path class="st8" d="M6107.7,696.5c0,5.5-2,8.6-5.6,8.6c-3.2,0-5.3-3-5.4-8.3c0-5.4,2.3-8.4,5.6-8.4
				C6105.8,688.2,6107.7,691.3,6107.7,696.5z M6098.9,696.7c0,4.2,1.3,6.6,3.3,6.6c2.2,0,3.3-2.6,3.3-6.8c0-4-1-6.6-3.3-6.6
				C6100.3,689.9,6098.9,692.3,6098.9,696.7z"/>
		</g>
	</g>
	<g>
		<circle class="st7" cx="4058.4" cy="1833.5" r="29.1"/>
		<g>
			<path class="st8" d="M3986.7,1839.1c0.6,0.4,2.1,1,3.6,1c2.8,0,3.7-1.8,3.7-3.1c0-2.3-2.1-3.2-4.2-3.2h-1.2v-1.6h1.2
				c1.6,0,3.6-0.8,3.6-2.7c0-1.3-0.8-2.4-2.8-2.4c-1.3,0-2.5,0.6-3.2,1.1l-0.6-1.6c0.8-0.6,2.5-1.2,4.2-1.2c3.2,0,4.6,1.9,4.6,3.9
				c0,1.7-1,3.1-3,3.8v0c2,0.4,3.6,1.9,3.6,4.2c0,2.6-2,4.9-5.9,4.9c-1.8,0-3.4-0.6-4.2-1.1L3986.7,1839.1z"/>
			<path class="st8" d="M4009.8,1833.3c0,5.5-2,8.6-5.6,8.6c-3.2,0-5.3-3-5.4-8.3c0-5.4,2.3-8.4,5.6-8.4
				C4007.9,1825.1,4009.8,1828.1,4009.8,1833.3z M4001,1833.6c0,4.2,1.3,6.6,3.3,6.6c2.2,0,3.3-2.6,3.3-6.8c0-4-1-6.6-3.3-6.6
				C4002.4,1826.8,4001,1829.1,4001,1833.6z"/>
			<path class="st8" d="M4022.6,1833.3c0,5.5-2,8.6-5.6,8.6c-3.2,0-5.3-3-5.4-8.3c0-5.4,2.3-8.4,5.6-8.4
				C4020.7,1825.1,4022.6,1828.1,4022.6,1833.3z M4013.8,1833.6c0,4.2,1.3,6.6,3.3,6.6c2.2,0,3.3-2.6,3.3-6.8c0-4-1-6.6-3.3-6.6
				C4015.2,1826.8,4013.8,1829.1,4013.8,1833.6z"/>
		</g>
	</g>
	<g>
		<circle class="st7" cx="2721.3" cy="1136.4" r="29.1"/>
		<g>
			<path class="st8" d="M2710.3,1190.1v-4.4h-7.5v-1.4l7.2-10.4h2.4v10.1h2.3v1.7h-2.3v4.4H2710.3z M2710.3,1184v-5.4
				c0-0.8,0-1.7,0.1-2.5h-0.1c-0.5,0.9-0.9,1.6-1.3,2.4l-4,5.5v0.1H2710.3z"/>
			<path class="st8" d="M2727.1,1181.8c0,5.5-2,8.6-5.6,8.6c-3.2,0-5.3-3-5.4-8.3c0-5.4,2.3-8.4,5.6-8.4
				C2725.2,1173.6,2727.1,1176.7,2727.1,1181.8z M2718.3,1182.1c0,4.2,1.3,6.6,3.3,6.6c2.2,0,3.3-2.6,3.3-6.8c0-4-1-6.6-3.3-6.6
				C2719.7,1175.3,2718.3,1177.7,2718.3,1182.1z"/>
			<path class="st8" d="M2739.9,1181.8c0,5.5-2,8.6-5.6,8.6c-3.2,0-5.3-3-5.4-8.3c0-5.4,2.3-8.4,5.6-8.4
				C2738,1173.6,2739.9,1176.7,2739.9,1181.8z M2731.1,1182.1c0,4.2,1.3,6.6,3.3,6.6c2.2,0,3.3-2.6,3.3-6.8c0-4-1-6.6-3.3-6.6
				C2732.5,1175.3,2731.1,1177.7,2731.1,1182.1z"/>
		</g>
	</g>
	<g>
		<path class="st9" d="M4367.1,883.3v-4.4h-7.5v-1.4l7.2-10.4h2.4v10.1h2.3v1.7h-2.3v4.4H4367.1z M4367.1,877.2v-5.4
			c0-0.8,0-1.7,0.1-2.5h-0.1c-0.5,0.9-0.9,1.6-1.3,2.4l-4,5.5v0.1H4367.1z"/>
		<path class="st9" d="M4382.8,868.9h-6.2l-0.6,4.2c0.4,0,0.7-0.1,1.3-0.1c1.2,0,2.5,0.3,3.5,0.9c1.3,0.7,2.3,2.1,2.3,4.2
			c0,3.2-2.5,5.5-6,5.5c-1.8,0-3.3-0.5-4-1l0.5-1.7c0.7,0.4,2,0.9,3.5,0.9c2.1,0,3.8-1.3,3.8-3.5c0-2.1-1.4-3.6-4.7-3.6
			c-0.9,0-1.6,0.1-2.2,0.2l1-7.8h7.8V868.9z"/>
		<path class="st9" d="M4396.7,875c0,5.5-2,8.6-5.6,8.6c-3.2,0-5.3-3-5.4-8.3c0-5.4,2.3-8.4,5.6-8.4
			C4394.8,866.8,4396.7,869.9,4396.7,875z M4387.9,875.3c0,4.2,1.3,6.6,3.3,6.6c2.2,0,3.3-2.6,3.3-6.8c0-4-1-6.6-3.3-6.6
			C4389.3,868.5,4387.9,870.9,4387.9,875.3z"/>
	</g>
</g>
</svg>
